<?xml version="1.0" encoding="UTF-8"?>
<!-- Uploaded to: SVG Find, www.svgfind.com, Generator: SVG Find Mixer Tools -->
<svg fill="#000000" width="800px" height="800px" version="1.1" viewBox="144 144 512 512" xmlns="http://www.w3.org/2000/svg">
 <g fill-rule="evenodd">
  <path d="m477.54 516.68c-4.7852-6.5234-9.4648-10.488-13.23-13.672-5.2031-4.4141-8.3477-7.0742-9.125-13.719-1.0781-9.2656 2.1406-15.047 5.5508-21.172 0.64453-1.1602 1.2891-2.3125 1.8945-3.4727 0.59375-1.1367 1.1797-2.2266 1.7383-3.2734 4.5547-8.5039 8.1523-15.219 4.6914-25.422-3.2734-9.6445-12.43-14.062-22.25-10.746-2.4805 0.83594-4.5898 1.9531-6.6289 3.0391-4.5547 2.418-8.1523 4.3242-14.922 2.9336-6.9219-1.4258-9.2383-12.809-9.2891-13.082-0.019531-0.12109-0.066406-0.22656-0.097656-0.34375 0.019531-0.16016 0.046875-0.31641 0.046875-0.48438l-0.91797-167.63c0-0.23047-0.03125-0.45312-0.070312-0.67188 0.24219-1.6484 0.75-3.9258 1.4961-5.25 2.2461-3.9883 4.625-5.9336 4.625-5.9336 1.0195-0.80078 1.5352-2.082 1.3555-3.3594-0.011719-0.070312-0.42188-3.0547-0.92578-7.1641l3.1953-0.011719c1.5078-0.003906 2.7188-1.2305 2.7148-2.7305s-1.2227-2.7148-2.7266-2.7148h-0.011718l-3.8125 0.015625c-0.40234-3.6328-0.78516-7.4961-1.0195-10.871l3.3711-0.035156c1.5-0.015625 2.7109-1.2461 2.6953-2.75-0.015625-1.4961-1.2344-2.6953-2.7266-2.6953h-0.03125l-3.5078 0.035157c0.039062-3.3008 0.37891-7.0117 0.81641-10.5l3.3398 0.20703c0.054687 0.003906 0.11719 0.003906 0.16797 0.003906 1.4297 0 2.6289-1.1133 2.7148-2.5586 0.089844-1.5-1.0469-2.793-2.5547-2.8867l-2.9102-0.17969c0.66406-4.2305 1.2852-7.2891 1.3008-7.3555 0.23047-1.0977-0.10156-2.2383-0.83203-3.0938-0.73047-0.85156-1.832-1.3398-2.9727-1.2656-0.10547-0.003906-2.3594 0.085938-5.5508-1.707-4.1523-2.3281-10.062-2.8047-10.906-2.8672-0.050781-0.003906-0.10156-0.003906-0.15234-0.011718h-0.21484c-0.75 0.011718-5.5977 0.19531-10.812 2.793-3.9531 1.9648-7.9688 2.5586-8.0039 2.5625-0.98828 0.13672-1.875 0.67578-2.4531 1.4844-0.57812 0.8125-0.79688 1.8281-0.60547 2.8047 0.015624 0.066406 0.61328 3.1797 1.2344 7.457l-2.3867 0.16016c-1.5 0.089844-2.6445 1.3789-2.5547 2.8828 0.085938 1.4453 1.2891 2.5586 2.7148 2.5586 0.054688 0 0.10938 0 0.16797-0.003907l2.7461-0.16797c0.35938 3.2188 0.62891 6.625 0.65625 9.7188l-3.5078-0.074219h-0.058594c-1.4766 0-2.6914 1.1836-2.7188 2.6641-0.03125 1.5 1.1641 2.75 2.6641 2.7812l3.4219 0.070312c-0.23828 3.4766-0.63672 7.4805-1.0547 11.203l-2.8828-0.17188c-1.4844-0.097656-2.793 1.0586-2.875 2.5586-0.089844 1.5 1.0586 2.793 2.5586 2.875l2.5586 0.15234c-0.48438 3.9297-0.875 6.7461-0.88281 6.8164-0.17578 1.2656 0.34375 2.5391 1.3359 3.3398 0.023438 0.019531 2.4023 1.9648 4.6484 5.9609 0.88672 1.5703 1.4414 4.4922 1.6016 6.0898l-3.5586 156.47c-4.9922 0.17578-15.219 0.80469-22.742 3.0195-9.0234 2.6484-19.141 6.8828-25.738 18.184-5.2812 9.0391-4.9336 20.992 1.043 35.523 1.375 3.3516 2.6914 5.8945 3.8555 8.1367 2.9531 5.707 4.5742 8.8516 3.3359 18.949-0.48828 3.9609-7.3086 10.496-12.785 15.742-3.6641 3.5078-7.1172 6.8164-9.6133 9.9922-6.457 8.2109-13.875 23.195-14.898 36.688-1.1289 14.895 5.2188 31.762 17.41 46.27 8.75 10.422 27.199 20.727 43.863 24.5 12.082 2.7422 24.984 3.4414 36.988 3.4414 3.7617 0 7.4414-0.070313 10.973-0.16797 15.863-0.42969 33.07-6.7461 42.344-12.434 11.828-7.2617 32.152-22.934 35.352-46.379 2.8477-20.863-3.8828-35.004-15.668-51.055zm-33.957-82.02c1.8633-0.98828 3.6289-1.9258 5.5469-2.5742 5.9609-2.0117 11.09 0.42188 13.047 6.2031 2.4492 7.2148 0.085938 11.633-4.2188 19.652-0.57422 1.0664-1.168 2.1797-1.7734 3.3438-0.57422 1.0977-1.1836 2.1914-1.7969 3.293-2.3828 4.2773-4.9609 8.9375-6.0898 14.883-0.19141-1.1094-0.33594-2.3984-0.40234-3.8984-0.16016-3.6914 0.36719-6.4297 0.88672-9.0703 0.46875-2.4023 0.91016-4.6797 0.74219-7.3203-0.43359-6.6641-2.3438-11.992-5.6797-15.836-2.0977-2.4141-4.3164-4.3789-6.1602-5.9102 2.1602-0.78125 4.0742-1.8008 5.8984-2.7656zm-19.793 3.6328c3.9336 0.8125 7.1992 0.75 10.027 0.21484l0.003906 0.003906c1.9531 1.5625 4.9062 3.918 7.5586 6.9727 2.8984 3.3359 4.4922 7.8828 4.8828 13.898 0.14453 2.2227-0.24219 4.1953-0.69141 6.4844-0.52344 2.6992-1.1172 5.7578-0.94141 9.8398 0.29297 6.5781 1.9961 9.8711 3.1172 11.348 0.035156 0.99219 0.10156 2.0039 0.22266 3.0664 1.1094 9.4922 5.9922 13.629 11.637 18.418 1.0664 0.90625 2.1797 1.8594 3.3242 2.8828 0.39844 3.6055 0.74609 13.168-6 17.516-6.957 4.4805-13.875 2.3477-19.125-0.011719-6.1445-2.7617-11.777-7.543-13.715-9.5977v-10.219c0-0.82031-0.20703-1.5859-0.54297-2.2773v-33.992c0.33594-0.69141 0.54297-1.457 0.54297-2.2773v-12.098c0-2.8867-2.3477-5.2344-5.2344-5.2344h-37.32c0.91016-2.7305 2.4023-5.2148 4.3789-7.3047 0.19531 0.29688 0.41797 0.57422 0.67188 0.82812 0.97656 0.97656 2.3281 1.5312 3.7031 1.5312h0.039063l18.984-0.11719c1.4023-0.011718 2.7148-0.5625 3.7031-1.5625 0.98828-1.0039 1.5273-2.3281 1.5156-3.7266l-0.070312-10.695c2.2344 2.8438 5.2422 5.2656 9.3281 6.1094zm-44.695 20.18c0-0.48438 0.39453-0.875 0.875-0.875h38.898c0.48437 0 0.875 0.39453 0.875 0.875v12.098c0 0.48438-0.39453 0.875-0.875 0.875h-38.898c-0.48438 0-0.875-0.39453-0.875-0.875zm28.66-204.55 0.89844 163.39c0 0.33594 0.066406 0.66016 0.15625 0.97266-0.046875 0.35938-0.054688 0.71875 0.011718 1.0938 0.011719 0.066406 0.058594 0.30078 0.125 0.61328l0.15234 22.746-18.59 0.10938 0.14453-31.449c0.21094-0.44922 0.34375-0.94141 0.35156-1.4727l3.543-155.89zm-17.957-45.805c0.29297-7.6797-1.1797-17.809-2.0664-23.074 1.8477-0.50391 4.1875-1.2812 6.5391-2.4531 3.6133-1.793 6.9922-2.0117 7.582-2.0312 1.5117 0.12109 5.4375 0.66016 7.7227 1.9453 1.8828 1.0586 3.6172 1.6992 5.082 2.082-0.97656 5.5312-2.5703 15.922-2.2773 23.539 0.30859 7.9414 1.9258 20.66 2.5586 25.438-1.2695 1.3047-3.1016 3.4805-4.8633 6.6016-1.582 2.8008-2.2148 6.6055-2.4336 8.3242l-13.109 0.11719c-0.20703-1.6641-0.83203-5.5781-2.4492-8.4375-1.7578-3.1172-3.5938-5.2969-4.8633-6.6016 0.65234-4.7891 2.2734-17.512 2.5781-25.449zm4.9375 411.14-3.0312-33.039h16.59l-3.0547 33.23c-3.4414 0.007813-6.957-0.054687-10.504-0.19141zm-6.2031-37.402c-1.2812 0-2.3164-1.043-2.3164-2.3242v-7.2695c9.0977-1.8984 18.656-1.8906 28.586 0.03125v7.2383c0 1.2812-1.043 2.3242-2.3164 2.3242zm97.477-15.098c-2.9023 21.242-23.316 35.871-31.957 41.172-8.7461 5.3672-24.859 10.992-38.742 11.367-2.0898 0.054688-4.2422 0.097657-6.4219 0.125l3.0469-33.207h0.53906c3.6836 0 6.6797-2.9961 6.6797-6.6797v-9.0195c0-1.0273-0.71875-1.9141-1.7227-2.1328-11.777-2.5352-23.176-2.5273-33.906 0.011719-0.98438 0.23047-1.6758 1.1094-1.6758 2.1211v9.0195c0 3.5156 2.7422 6.3789 6.1914 6.6289l3.0195 32.914c-7.3867-0.42969-14.828-1.2734-21.922-2.8828-15.035-3.4102-32.195-12.902-39.906-22.094-10.977-13.07-16.711-28.031-15.73-41.051 0.86719-11.441 7.3789-25.129 13.367-32.742 2.1758-2.7695 5.457-5.9102 8.9258-9.2344 7.2852-6.9766 14.172-13.574 14.973-20.102 1.5156-12.324-0.83594-16.871-4.0898-23.172-1.0938-2.1094-2.3281-4.5-3.5859-7.5586-5.0664-12.328-5.5664-22.121-1.4922-29.102 4.2305-7.2383 10.664-11.688 21.52-14.879 7.3008-2.1445 18.012-2.6445 22.062-2.7617l-0.13281 28.641-0.57031 0.53516c-3.1133 2.9219-5.3516 6.6484-6.4688 10.777l-0.050781 0.17969c-1.8945 0.78516-3.2344 2.6562-3.2344 4.832v12.098c0 2.8867 2.3477 5.2344 5.2344 5.2344h38.898c0.49219 0 0.96094-0.089843 1.4219-0.22266v28.52c-0.45312-0.13281-0.92188-0.22266-1.4219-0.22266h-38.898c-2.8867 0-5.2344 2.3477-5.2344 5.2344v12.098c0 2.8867 2.3477 5.2305 5.2344 5.2305h38.898c2.1016 0 3.9102-1.2539 4.7422-3.043 3.3164 2.9961 8.5312 6.5703 12.867 8.5156 1.8945 0.85156 5.4609 2.4492 9.8086 2.8281 1.3008 3.0195 4.918 11.309 6.6367 14.168 1.7383 2.8867 1.9688 3.2305 4.2031 5.7422 1.7266 1.9453 4.8203 3.4141 7.1055 2.0469 2.0312-1.2188 2.707-3.8281 0.57031-5.6484-2.8203-2.3984-5.8945 0.88672-5.8945 0.88672s-4.125-5.0781-5.2852-9.2109c-0.57812-2.0664-1.6016-6.4922-1.9961-8.2227 2.3008-0.41406 4.6953-1.2734 7.0938-2.8164 6.4844-4.1758 7.6992-11.785 7.6914-16.949 1.7188 1.7695 3.4883 3.7891 5.2852 6.2383 10.988 14.98 16.855 27.27 14.324 45.789zm-66.266-57.637v12.098c0 0.48047-0.39453 0.87109-0.875 0.87109h-38.898c-0.48438 0-0.875-0.39453-0.875-0.87109v-12.098c0-0.48438 0.39453-0.875 0.875-0.875h38.898c0.48437 0 0.875 0.39062 0.875 0.875z"/>
  <path d="m423.95 534.24-49.117-0.011719c-1.7031 0-3.0898 1.3789-3.0898 3.0898 0 1.7031 1.3789 3.0898 3.0898 3.0898l49.117 0.011719c1.7031 0 3.0898-1.3789 3.0898-3.0898-0.003906-1.7031-1.3828-3.0898-3.0898-3.0898z"/>
  <path d="m386.34 466.7h26.152c1.2031 0 2.1797-0.97656 2.1797-2.1797s-0.97656-2.1797-2.1797-2.1797h-26.152c-1.2031 0-2.1797 0.97656-2.1797 2.1797 0 1.1992 0.97656 2.1797 2.1797 2.1797z"/>
  <path d="m412.8 512.98h-26.156c-1.2031 0-2.1797 0.97656-2.1797 2.1797 0 1.2031 0.97656 2.1797 2.1797 2.1797h26.156c1.2031 0 2.1797-0.97656 2.1797-2.1797 0-1.207-0.97656-2.1797-2.1797-2.1797z"/>
  <path d="m450.2 588.42c-2.6914 0-4.8828 2.1562-4.8828 4.8008 0 2.6484 2.1914 4.8008 4.8828 4.8008 2.6914 0 4.8828-2.1562 4.8828-4.8008-0.003906-2.6445-2.1953-4.8008-4.8828-4.8008zm0 6.332c-0.89062 0-1.6133-0.68359-1.6133-1.5312s0.72656-1.5312 1.6133-1.5312 1.6133 0.68359 1.6133 1.5312c-0.003906 0.84766-0.72656 1.5312-1.6133 1.5312z"/>
  <path d="m463.17 569.18h-0.019531c-1.5273 0-3.0078 0.62891-4.0664 1.7266l-26.414 27.422c-1.043 1.082-1.6172 2.5703-1.5703 4.0703 0.046876 1.5078 0.70703 2.9531 1.8086 3.9766l4.5547 4.2031c1.0781 0.99609 2.4492 1.4961 3.8203 1.4961 1.4219 0 2.8398-0.53516 3.9297-1.5977l26.938-26.254c2.1914-2.1367 2.2617-5.6797 0.16016-7.8984l-5.0781-5.375c-1.0508-1.1211-2.5312-1.7617-4.0625-1.7695zm6.7031 12.699-26.945 26.254c-0.89844 0.88281-2.3281 0.89844-3.25 0.039063l-4.5547-4.2031c-0.46484-0.42969-0.74219-1.0391-0.76172-1.668-0.019531-0.62891 0.22266-1.2539 0.66016-1.707l26.414-27.422c0.44141-0.46484 1.0664-0.72656 1.707-0.72656h0.011719c0.64062 0 1.2656 0.27344 1.707 0.74219l5.0781 5.375c0.88281 0.93359 0.85156 2.418-0.066406 3.3164z"/>
  <path d="m443.9 602.21c0 3.5-5.332 3.5-5.332 0s5.332-3.5 5.332 0"/>
  <path d="m461 577.66c-2.6914 0-4.8828 2.1562-4.8828 4.8008s2.1914 4.8008 4.8828 4.8008 4.8828-2.1562 4.8828-4.8008-2.1914-4.8008-4.8828-4.8008zm0 6.332c-0.88672 0-1.6133-0.68359-1.6133-1.5312 0-0.84766 0.72656-1.5312 1.6133-1.5312 0.89062 0 1.6133 0.68359 1.6133 1.5312 0 0.84766-0.72266 1.5312-1.6133 1.5312z"/>
  <path d="m381.27 432.57c0.32812-3.0234-0.53906-5.9961-2.4453-8.3633l-2.5273-3.1484c-1.9062-2.3711-4.6133-3.8594-7.6367-4.1875-3.0078-0.32812-6.0312 0.5625-8.3633 2.4375l-8.7148 6.9961c-2.3359 1.8789-3.8633 4.6602-4.1875 7.6367-0.32812 2.9766 0.5625 6.0273 2.4375 8.3633l2.5273 3.1484c1.8984 2.3711 4.6133 3.8594 7.6367 4.1914 0.41406 0.046875 0.82812 0.066407 1.2383 0.066407 2.5781 0 5.1094-0.89063 7.125-2.5078l8.7148-6.9961c2.3789-1.9023 3.8633-4.6133 4.1953-7.6367zm-6.4609 4.8125-8.7148 6.9961c-1.5938 1.2734-3.6719 1.8906-5.6914 1.6562-2.0625-0.22656-3.9102-1.2383-5.2031-2.8555l-2.5273-3.1445c-1.2812-1.5938-1.8828-3.668-1.6641-5.6992 0.22266-2.0234 1.2578-3.9258 2.8516-5.1992l8.7148-6.9961c1.3711-1.0977 3.0938-1.707 4.8516-1.707 0.28125 0 0.5625 0.015625 0.84766 0.046875 2.0312 0.22266 3.9258 1.2578 5.2031 2.8516l2.5273 3.1445c1.293 1.6133 1.8906 3.6367 1.6641 5.6992-0.23047 2.0547-1.2422 3.9062-2.8594 5.207z"/>
  <path d="m366.92 424.39c-0.46875-0.58984-1.3242-0.67969-1.9141-0.21484l-4.4922 3.5781c-0.10156 0.046875-0.20312 0.10156-0.29297 0.17578l-4.8359 3.793c-0.28125 0.22266-0.46875 0.55078-0.50781 0.90625-0.046875 0.35938 0.054688 0.71875 0.28125 1.0039l6.207 7.9062c0.22266 0.28906 0.55078 0.46875 0.90625 0.51562 0.054688 0.003907 0.10938 0.011719 0.16016 0.011719 0.30078 0 0.59766-0.10156 0.83984-0.29297l4.5664-3.5859c0.10937-0.050782 0.21484-0.10938 0.3125-0.1875l4.8047-3.8281c0.58984-0.46875 0.68359-1.3242 0.21484-1.9141zm-4.25 14.395-4.5234-5.7617 2.6562-2.0859 4.5586 5.7344zm4.8555-3.7734-4.5234-5.7578 2.6406-2.1016 4.5664 5.7266z"/>
  <path d="m364.07 498.58c-1.7383-0.76562-3.3867 0.21094-4.9492 1.9648-1.5664 1.7578-5.4023 8.1875-6.7852 11.004-1.1172 2.2812-2.5859 4.6211-4.1562 6.9844-1.043 1.5664-3.0195 3.6484-3.0195 3.6484s-0.42969 8.4492-1.6016 13.297c-0.57813 2.4023-1.5352 6.3984-3.0039 8.8672-0.76172 1.2891-3.4023 3.4258-3.4023 3.4258s-1.918-2.207-4.2188-0.57422c-2.2578 1.6055-2.3438 3.6836-0.65625 5.2891 1.8633 1.7773 5.2734 0.90234 6.6406-0.42969 1.2109-1.1797 3.5234-4.0742 4.7812-6.5781 2.0625-4.0977 3.6914-9.0977 5.4531-11.266 2.2891-2.8203 4.2656-4.8203 4.2656-4.8203s0.21484-9.0703 0.92578-11.906c0.75391-2.9922 2.3438-7.5781 3.3711-9.2539 1.0273-1.6758 3.4141-4.9141 3.4141-4.9141s2.1797 1.2812 3.7266-0.36719c1.5469-1.6289 0.95313-3.6055-0.78516-4.3711z"/>
 </g>
</svg>