<?xml version="1.0" encoding="UTF-8"?>
<!-- Uploaded to: SVG Find, www.svgfind.com, Generator: SVG Find Mixer Tools -->
<svg fill="#000000" width="800px" height="800px" version="1.1" viewBox="144 144 512 512" xmlns="http://www.w3.org/2000/svg">
 <g fill-rule="evenodd">
  <path d="m398.58 626.69c1.1992 0.023438 16.082 0.25 30.238-1.6758 7.6875-1.0547 15.16-2.7695 20.312-5.4023 6.9062-3.5273 12.773-7.5625 17.625-11.898 5.9531-5.332 10.395-11.113 13.367-16.977 2.8359-5.5938 5.707-11.879 7.4219-18.898 1.5469-6.3281 2.168-13.238 1.0273-20.773-1.0664-7.0781-2.7695-12.773-4.8281-17.734-2.4805-5.9922-5.4766-10.906-8.5156-15.941-1.9336-3.1992-3.7773-5.9258-5.5664-8.3594-3.2656-4.4492-6.3242-7.9062-9.3555-11.504-2.7852-3.3047-5.4141-6.1328-7.4414-9.1055-1.3047-1.9141-2.3477-3.8828-2.9375-6.1445-0.67578-2.5898-0.67969-4.9492-0.054688-7.5273 0.57812-2.3867 1.6562-4.9375 3.168-7.9492 2.2812-4.543 4.5-8.0469 6.2188-12.051 1.1797-2.7461 2.1406-5.7148 2.7656-9.332 0.72656-4.2109 0.89062-7.2539 0.625-9.8594-0.34766-3.4297-1.4258-6.1445-3.1953-9.668-1.5586-3.0898-3.8789-5.7617-6.2422-7.5352-2.7422-2.0547-5.6289-2.8516-7.7773-2.5-2.3164 0.38281-4.7266 0.71875-7.418 2.6641-1.582 1.1445-3.2891 2.875-5.0781 5.6562-0.98828 1.5352-1.5977 2.8516-2.0234 4.0508-0.92188 2.6055-0.60547 4.5234-2.3359 7.6992-0.74609 1.3672-1.6133 2.3164-2.6055 2.9414-1.1953 0.75-2.5391 1.0391-3.9297 1.1758-1.4141 0.13672-2.5742-0.27734-3.4766-0.86719-1.1133-0.72656-1.8789-1.6719-2.3242-2.3164l-5.2539-186.07c0.03125-0.054688 0.074218-0.10156 0.10547-0.15625 0 0 0.70703-1.3164 1.7422-2.6797 0.53906-0.71094 1.1641-1.457 1.8555-1.9492 1.4219-1.0117 3.0273-1.832 4.5-2.4844 2.7148-1.1875 4.9961-1.7852 4.9961-1.7852 1.4766-0.38281 2.5586-1.6484 2.707-3.1641 0 0 0.40234-3.9453-0.48438-9.6523-0.42187-2.7266-1.1445-5.8711-2.3477-9.1758l-3.5469-10.863c2.3086-1.1016 5.4219-2.8477 7.9609-5.1953 2.5352-2.3438 4.4805-5.2656 5.0117-8.6289 0.75-4.7578 0.039062-9.1523-1.9453-12.766-2.0469-3.7227-5.4414-6.6641-10.188-8.2891-3.2539-1.1133-6.7109-0.99609-10.07 0.47266-2.5898 1.1328-5.1602 3.125-7.4766 6.0898l-5.6875-2.1406c-1.125-0.41797-2.3711 0.15234-2.793 1.2695-0.42188 1.125 0.15234 2.3711 1.2695 2.793l4.7773 1.7852c-0.53906 1.0586-1.4766 3.2578-2.6719 6.1953l-4.7695-1.7695c-1.1172-0.41797-2.3711 0.15234-2.793 1.2695-0.42188 1.125 0.15234 2.3711 1.2695 2.7969l4.6836 1.75c-0.67969 1.7188-1.4023 3.5664-2.1523 5.5117-0.10156 0.25781-0.20312 0.51953-0.29687 0.77734l-4.5-1.6914c-1.125-0.41797-2.3711 0.15234-2.793 1.2695-0.42188 1.125 0.15234 2.3711 1.2695 2.7969l4.4727 1.668c-0.78516 2.0625-1.5859 4.1602-2.3828 6.2656l-4.1328-1.5547c-1.125-0.41797-2.3711 0.15234-2.7969 1.2695-0.41797 1.125 0.15234 2.3711 1.2695 2.7969l4.1328 1.543c-0.83594 2.2148-1.6484 4.3867-2.418 6.4492l-3.9336-1.4805c-1.125-0.41797-2.3711 0.15234-2.7969 1.2695-0.41797 1.125 0.15234 2.3711 1.2695 2.7969l3.9453 1.4727c-0.87109 2.3438-1.6523 4.4336-2.293 6.168l-3.918-1.5156c-1.1172-0.42969-2.3711 0.13281-2.8047 1.2461-0.42969 1.1172 0.125 2.3711 1.2461 2.8047l3.9766 1.5273c-0.24219 0.66016-0.37891 1.0273-0.37891 1.0273-0.40625 1.1094-0.25 2.3477 0.42188 3.3164l6.832 9.8633-3.9258 140.23-1.3281 46.84c-0.3125 0.5625-0.94531 1.5-1.9844 2.1875-0.78516 0.51953-1.8242 0.84766-3.1484 0.71484-1.3906-0.13672-2.7344-0.42188-3.9336-1.1797-0.99609-0.625-1.8633-1.582-2.6094-2.9531-1.7344-3.1758-1.4141-5.0977-2.3438-7.7031-0.42188-1.1953-1.0312-2.5078-2.0234-4.0469-1.7891-2.7812-3.4922-4.5156-5.0742-5.6523-2.6914-1.9453-5.0938-2.2812-7.4102-2.6641-2.1523-0.35937-5.0312 0.44141-7.7695 2.4922-2.3633 1.7695-4.6836 4.4492-6.2383 7.5312-1.7695 3.5234-2.8477 6.2305-3.1953 9.6641-0.26562 2.6055-0.097656 5.6484 0.625 9.8555 0.625 3.6172 1.582 6.5859 2.7617 9.3242 1.7227 4.0117 3.9336 7.5117 6.2188 12.051 1.5117 3.0117 2.5898 5.5625 3.168 7.9492 0.625 2.5781 0.625 4.9375-0.054688 7.5312-0.58984 2.2617-1.6328 4.2305-2.9375 6.1445-2.0312 2.9727-4.6602 5.8008-7.4453 9.1055-3.0312 3.5977-6.0898 7.0547-9.3555 11.496-1.7891 2.4336-3.6328 5.1602-5.5664 8.3594-3.0391 5.0273-6.0352 9.9453-8.5195 15.941-2.0547 4.9609-3.7539 10.652-4.8281 17.734-1.1367 7.5312-0.51953 14.438 1.0234 20.766 1.7188 7.0195 4.5859 13.301 7.4219 18.898 2.9766 5.8633 7.4102 11.652 13.367 16.977 4.8477 4.3359 10.715 8.375 17.625 11.898 5.0547 2.5781 12.02 4.2773 19.121 5.3359 13.512 2.0156 27.492 1.7812 28.605 1.7539zm0.066407-7.2422h-0.16797s-1.7266 0.039062-4.5234 0.003906c0.11719-0.31641 0.17969-0.65625 0.13281-1.0117l-5.6523-42.117h23.293l-5.6523 42.125c-0.046875 0.33594 0.011719 0.66406 0.10938 0.96875-4.5586 0.09375-7.5391 0.03125-7.5391 0.03125zm-14.809-47.449v-3.4961l33.438 0.003906v3.4961zm5.9258-132.06c0.011719-0.019531 0.015625-0.03125 0.023437-0.050781 0.30859-0.51562 0.50391-1.1016 0.52344-1.7422l5.2461-185.94 8.2305-0.33594 5.1953 185.21c-0.12109 0.64844-0.066406 1.3359 0.19141 1.9844v9.6914c0 0.44141-0.17969 0.83984-0.46875 1.1289-0.28906 0.28906-0.69141 0.46875-1.1289 0.46875l-16.219-0.003907c-0.44141 0-0.83984-0.17578-1.1289-0.46875-0.28906-0.28906-0.46875-0.68359-0.46875-1.1289zm23.234-258.15c1.9766-1.25 4.0625-1.5586 6.0117-0.89062 2.8516 0.97266 4.9414 2.6758 6.1719 4.918 1.2656 2.3008 1.6172 5.1133 1.1367 8.1367-0.36328 2.2891-2.1523 4.0508-4 5.4648-3.4414 2.6406-7.4609 4.0195-7.4609 4.0195-1.8594 0.63672-2.8711 2.6367-2.293 4.5078l4.6758 14.309c1.0234 2.8125 1.6328 5.4805 1.9961 7.8008 0.34375 2.2266 0.45703 4.125 0.48438 5.4922-0.98828 0.34375-2.1797 0.78516-3.4492 1.3438-1.8984 0.83203-3.9688 1.9102-5.8047 3.2188-1.0117 0.72656-2 1.7148-2.8633 2.7617-1.043 1.2695-1.8945 2.6055-2.4102 3.4609-0.019531 0.015625-0.039062 0.035157-0.058593 0.054688l-10.289 0.39844-6.3164-9.125c2.0039-5.4141 8.2305-22.199 13.184-35.023 2.918-7.5625 5.3438-13.719 6.1445-15.09 1.5469-2.6562 3.2852-4.5859 5.1406-5.7578zm-74.934 420.52c-5.2188-4.6641-9.1289-9.7188-11.738-14.855-2.6055-5.1328-5.2695-10.898-6.8477-17.34-1.3359-5.4727-1.8828-11.453-0.89844-17.965 0.96875-6.4102 2.5-11.559 4.3594-16.047 2.3281-5.6328 5.168-10.238 8.0195-14.969 2.3242-3.8438 4.5078-6.957 6.6211-9.6992 2.6367-3.4258 5.1484-6.2812 7.6445-9.2383 2.9609-3.5117 5.7383-6.5312 7.8906-9.6875 1.7773-2.6094 3.1523-5.3164 3.9609-8.3984 0.80469-3.0781 0.95703-5.9297 0.51562-8.9062-0.52344-3.4766-1.9062-7.1523-4.1602-11.652-2.2109-4.3984-4.3672-7.7773-6.0352-11.664-0.97266-2.2617-1.7695-4.7109-2.2812-7.6992-0.57813-3.375-0.76953-5.8086-0.55859-7.8945 0.26172-2.543 1.1445-4.5273 2.457-7.1445 0.84766-1.6875 2.0352-3.1953 3.3047-4.332 0.66406-0.59766 1.3438-1.0938 2.0156-1.4297 0.39453-0.20312 0.73047-0.42969 1.043-0.37891 1.3438 0.22266 2.793 0.26172 4.3516 1.3906 1.0234 0.74219 2.0703 1.9062 3.2305 3.707 0.625 0.97656 1.0234 1.8047 1.293 2.5625 1.0586 2.9688 0.82812 5.1172 2.8047 8.7422 1.4414 2.6367 3.1875 4.3984 5.1055 5.6016 2.1602 1.3594 4.5586 2.0117 7.082 2.2578 2.8984 0.28125 5.2344-0.38281 7.082-1.4258v2.918c0 1.9414 0.78516 3.6992 2.0625 4.9727 1.2734 1.2734 3.0312 2.0625 4.9727 2.0625l16.219-0.003906c1.9414 0 3.6992-0.78516 4.9688-2.0547 1.2695-1.2734 2.0547-3.0273 2.0547-4.9688v-3.4922l0.011719 0.011719c2.1094 1.375 4.8203 2.332 8.1484 2.0039 2.5234-0.24609 4.9219-0.89844 7.0898-2.2578 1.9141-1.2031 3.668-2.9688 5.1094-5.6055 1.9766-3.6211 1.75-5.7734 2.8047-8.7461 0.27344-0.76172 0.66406-1.5859 1.293-2.5586 1.1523-1.7969 2.2031-2.9609 3.2227-3.7031 1.5586-1.125 3.0039-1.1641 4.3438-1.3867 0.3125-0.050781 0.64453 0.17578 1.0391 0.37891 0.66406 0.34375 1.3438 0.83594 2.0117 1.4297 1.2695 1.1367 2.4531 2.6406 3.3047 4.3281 1.3164 2.6094 2.1953 4.5938 2.457 7.1406 0.21094 2.0859 0.019532 4.5234-0.55859 7.8906-0.51562 2.9883-1.3047 5.4375-2.2773 7.6992-1.668 3.8828-3.8242 7.2656-6.0352 11.664-2.2617 4.5-3.6406 8.1758-4.1602 11.656-0.44922 2.9766-0.29297 5.8359 0.51562 8.9141 0.80469 3.0781 2.1797 5.7891 3.9648 8.3984 2.1523 3.1602 4.9336 6.1758 7.8906 9.6875 2.4883 2.957 5.0078 5.8086 7.6445 9.2383 2.1055 2.7422 4.2969 5.8555 6.6211 9.6992 2.8555 4.7266 5.6914 9.3359 8.0273 14.965 1.8594 4.4883 3.3906 9.6367 4.3594 16.043 0.98828 6.5156 0.4375 12.488-0.89844 17.965-1.5781 6.4453-4.2383 12.203-6.8398 17.34-2.6094 5.1406-6.5195 10.188-11.734 14.855-4.4219 3.9531-9.7852 7.6328-16.086 10.848-4.5586 2.3281-11.195 3.7422-17.996 4.6758-6.1328 0.83594-12.402 1.2539-17.559 1.457 0.023438-0.089844 0.082032-0.16797 0.089844-0.26562l5.707-42.699h3.3516c1.1875 0 2.1602-0.96875 2.1602-2.1602v-7.8242c0-1.1992-0.96875-2.1719-2.1562-2.1719l-37.762 0.003906c-1.1953 0-2.168 0.96875-2.168 2.168v7.8242c0 1.1992 0.96875 2.168 2.168 2.168h2.4102l5.707 42.699c0.015625 0.125 0.082031 0.22656 0.12109 0.34766-5.1836-0.16797-12.086-0.57812-18.863-1.5859-6.2656-0.93359-12.434-2.3438-16.895-4.6211-6.3438-3.2539-11.703-6.9258-16.125-10.883z"/>
  <path d="m375.63 482.22c0.29297 0.69922 0.71484 1.3398 1.2578 1.8906 0.54297 0.54297 1.1875 0.97266 1.8906 1.2656 0.69922 0.29297 1.457 0.44141 2.2266 0.44141l35.105-0.003906c0.76953 0 1.5273-0.15625 2.2266-0.44141 0.69922-0.29297 1.3398-0.71484 1.8906-1.2656 0.54297-0.54297 0.96875-1.1875 1.2578-1.8906 0.28906-0.69922 0.44141-1.457 0.44141-2.2266v-8.6094h0.015624c0-0.77734-0.15625-1.5312-0.44141-2.2305-0.29297-0.69922-0.71484-1.3438-1.2656-1.8906-0.54297-0.54297-1.1875-0.97266-1.8906-1.2656-0.69922-0.29297-1.457-0.44141-2.2305-0.44141l-35.105 0.003907c-0.77734 0-1.5273 0.15625-2.2305 0.44141-0.69922 0.28906-1.3438 0.71484-1.8906 1.2578-0.54297 0.54297-0.97266 1.1875-1.2656 1.8906-0.28906 0.69922-0.44141 1.457-0.44141 2.2266v8.6094c0.007812 0.78516 0.16016 1.5391 0.44922 2.2383zm4.9961-10.836 0.10938-0.27344 0.27734-0.10938s35.105 0.003906 35.105 0.003906l0.27344 0.10938 0.10938 0.27344h0.015625v8.6094l-0.11719 0.27734-0.28125 0.11719-35.105-0.003906-0.27734-0.11719-0.11719-0.27344z"/>
  <path d="m418.97 501.67c-0.69922-0.29297-1.457-0.44141-2.2305-0.44141l-35.105 0.003907c-0.77734 0-1.5273 0.15234-2.2305 0.44141-0.69922 0.29297-1.3438 0.71484-1.8906 1.2656-0.54297 0.54297-0.97266 1.1875-1.2656 1.8906-0.28906 0.69922-0.44141 1.457-0.44141 2.2305v8.6055c0 0.77734 0.15234 1.5273 0.44141 2.2266 0.29297 0.69922 0.71484 1.3438 1.2656 1.8906 0.54297 0.54297 1.1875 0.97266 1.8906 1.2578 0.69922 0.28906 1.457 0.44141 2.2266 0.44141l35.105-0.003907c0.76953 0 1.5273-0.15234 2.2266-0.44141 0.69922-0.28906 1.3398-0.71484 1.8906-1.2578 0.54297-0.54297 0.97266-1.1875 1.2578-1.8906 0.28906-0.69922 0.44141-1.457 0.44141-2.2266v-8.6055h0.015625c0-0.77734-0.15625-1.5312-0.44141-2.2305-0.28906-0.69922-0.71484-1.3438-1.2656-1.8945-0.54688-0.54688-1.1914-0.97656-1.8906-1.2617zm-1.8359 13.988-0.11719 0.28125-0.28125 0.11719-35.105-0.003907-0.27734-0.11719-0.11719-0.27734v-8.6055l0.11719-0.27734 0.27344-0.10938 35.105 0.003907 0.27344 0.10938 0.10938 0.27344h0.015625z"/>
  <path d="m433.77 533.73c-0.003906-1.9961-1.6328-3.6055-3.6289-3.5977l-60.785 0.20312c-2.0039 0.003906-3.6289 1.6367-3.6172 3.6406 0.003907 2.0039 1.6406 3.6289 3.6484 3.6172l60.785-0.23828c1.9883-0.007813 3.6016-1.6328 3.5977-3.625z"/>
  <path d="m453.64 550.64c0-2.1367-0.89062-4.0742-2.3477-5.4648-1.4062-1.3438-3.332-2.1797-5.457-2.1797v0.011719c-2.1211 0-4.0469 0.83203-5.4531 2.1758-1.4492 1.3906-2.3477 3.3242-2.3477 5.4609 0 2.1367 0.89063 4.0703 2.3438 5.4609 1.4023 1.3438 3.3242 2.1797 5.4531 2.1797 2.125 0 4.0508-0.83594 5.457-2.1758 1.4531-1.3984 2.3516-3.3359 2.3516-5.4688zm-5.3477 2.3359c-0.62891 0.60547-1.5 0.97656-2.457 0.97656-0.95703 0-1.8242-0.37109-2.457-0.97656-0.62109-0.59766-1.0117-1.4258-1.0117-2.3359 0-0.91797 0.38672-1.7422 1.0117-2.3438 0.63672-0.60938 1.5-0.97656 2.457-0.97656v0.011719c0.95703 0 1.8242 0.36719 2.4531 0.97266 0.62109 0.59375 1.0117 1.4219 1.0117 2.3359 0 0.91406-0.38672 1.7422-1.0078 2.3359z"/>
  <path d="m457.11 564.91v0.015625c-2.125 0-4.0469 0.83203-5.4531 2.1758-1.4492 1.3906-2.3477 3.3242-2.3477 5.4609 0 2.1367 0.89062 4.0703 2.3438 5.4609 1.4062 1.3438 3.332 2.1797 5.4531 2.1797 2.125 0 4.0508-0.83594 5.457-2.1797 1.4492-1.3906 2.3477-3.3242 2.3477-5.4609 0-2.1367-0.89062-4.0742-2.3438-5.4648-1.4062-1.3477-3.3281-2.1836-5.457-2.1875zm2.4609 9.9844c-0.62891 0.60547-1.5 0.97656-2.457 0.97656s-1.8281-0.36719-2.457-0.97266c-0.625-0.59766-1.0195-1.4258-1.0195-2.3359 0-0.91797 0.39453-1.7422 1.0117-2.3438 0.62891-0.60938 1.5-0.97656 2.457-0.97656v0.011719c0.95703 0 1.8242 0.36719 2.4531 0.97266 0.62109 0.59375 1.0117 1.4219 1.0117 2.332 0.007813 0.91406-0.38281 1.7422-1 2.3359z"/>
  <path d="m443.67 452.71c1.9883 0 3.793-0.82812 5.0898-2.168 1.2656-1.3047 2.0508-3.0977 2.0508-5.0781 0-1.9805-0.78516-3.7734-2.0508-5.082-1.3008-1.3398-3.1016-2.168-5.0938-2.168v0.011718c-1.9844 0-3.7891 0.82812-5.082 2.1602-1.2656 1.3047-2.0508 3.0977-2.0508 5.0742 0 1.9805 0.78125 3.7734 2.0469 5.0742 1.2969 1.3477 3.1016 2.1758 5.0898 2.1758zm-1.9844-9.3086c0.50781-0.52344 1.2031-0.85156 1.9805-0.85156v0.011719c0.77734 0 1.4727 0.32812 1.9766 0.84766 0.51562 0.52734 0.83203 1.2578 0.83203 2.0625 0 0.80078-0.3125 1.5352-0.82812 2.0664-0.50391 0.51953-1.2031 0.84766-1.9805 0.85156-0.77734 0-1.4766-0.32812-1.9805-0.84766-0.51562-0.52734-0.83203-1.2578-0.83203-2.0664 0.007812-0.81641 0.32031-1.5469 0.83203-2.0742z"/>
  <path d="m369.09 508.29c1.1172-0.41797 1.6836-1.6641 1.2656-2.7773 0 0-0.70703-1.9453-2.5352-3.4375-0.99219-0.8125-2.3125-1.4961-4.0039-1.6836-2.457-0.27344-5.7227 1.4141-8.6445 4.5547-2.7109 2.9102-5.2344 7.0078-6.6367 11.148-0.8125 2.4023-3.2695 11.543-5.4375 18.559-1.0234 3.3086-1.9648 6.1367-2.6289 7.4219-1.125 2.1797-2.3828 4.7422-3.9844 6.625-0.91797 1.0781-1.9258 1.9531-3.1797 2.1211-0.71875 0.10156-1.2539-0.070313-1.6328-0.37891-0.82031-0.66406-1.0547-1.7227-1.0547-1.7227-0.26562-1.168-1.4297-1.8984-2.6016-1.6328-1.168 0.26562-1.8984 1.4297-1.6328 2.6016 0 0 0.58594 2.5391 2.5547 4.1328 1.1523 0.9375 2.7461 1.6016 4.9414 1.3047 2.2773-0.30859 4.2422-1.6562 5.9062-3.6133 1.8086-2.125 3.2656-4.9883 4.5352-7.4453 0.72656-1.4141 1.793-4.5 2.9102-8.1328 2.1523-6.9766 4.5859-16.062 5.3945-18.449 0.99609-2.9375 2.6406-5.8477 4.4922-8.1836 1.2461-1.5664 2.5703-2.875 3.8633-3.7344 0.85156-0.55859 1.6367-0.96094 2.3516-0.88281 0.74219 0.085938 1.3203 0.38281 1.7539 0.73438 0.86328 0.69922 1.2148 1.5977 1.2148 1.5977 0.42578 1.1211 1.668 1.6914 2.7891 1.2734z"/>
  <path d="m430.8 507.51c1.1172 0.41797 2.3633-0.15234 2.7773-1.2656 0 0 0.35938-0.89844 1.2188-1.5977 0.43359-0.35938 1.0117-0.65625 1.7539-0.73438 0.71484-0.074218 1.5 0.31641 2.3516 0.88281 1.293 0.85156 2.6211 2.168 3.8633 3.7266 1.8555 2.3359 3.5 5.2461 4.4922 8.1836 0.80469 2.3867 3.2461 11.473 5.3945 18.449 1.1172 3.6328 2.1875 6.7148 2.918 8.1328 1.2695 2.457 2.7266 5.3203 4.5352 7.4453 1.6641 1.9492 3.6289 3.3047 5.9062 3.6133 2.1914 0.29688 3.7891-0.37109 4.9414-1.3047 1.9648-1.5938 2.5547-4.1328 2.5547-4.1328 0.26563-1.168-0.46484-2.332-1.6328-2.6016-1.168-0.26562-2.332 0.46484-2.6016 1.6328 0 0-0.23047 1.0625-1.0547 1.7227-0.37891 0.30859-0.91016 0.47266-1.6328 0.37891-1.2578-0.17188-2.2617-1.043-3.1797-2.1211-1.6016-1.8828-2.8633-4.4453-3.9844-6.625-0.66406-1.2891-1.6055-4.1094-2.6289-7.4219-2.168-7.0195-4.625-16.152-5.4375-18.559-1.4023-4.1406-3.918-8.2305-6.6367-11.148-2.9219-3.1406-6.1875-4.8281-8.6445-4.5547-1.6992 0.1875-3.0117 0.87109-4.0039 1.6836-1.8281 1.4922-2.5352 3.4375-2.5352 3.4375-0.41797 1.1133 0.15234 2.3594 1.2656 2.7773z"/>
 </g>
</svg>