<?xml version="1.0" encoding="UTF-8"?>
<!-- Uploaded to: SVG Find, www.svgfind.com, Generator: SVG Find Mixer Tools -->
<svg fill="#000000" width="800px" height="800px" version="1.1" viewBox="144 144 512 512" xmlns="http://www.w3.org/2000/svg">
 <g fill-rule="evenodd">
  <path d="m357.3 619.35c6.418 2.8867 16.395 7.3633 38.258 7.3633 4.7305 0 10.016-0.21094 15.941-0.69141 10.227-0.83203 29.32-3.6562 42.266-13.273 11.148-8.2773 17.781-16.461 18.668-33.789 0.97266-18.863-8.832-34.59-13.09-40.477-2.2383-3.0898-4.4648-5.6367-6.4219-7.8906-3.9961-4.5781-6.8828-7.8906-7.6289-12.887-0.88672-5.9258-0.22266-7.3906 2.6289-13.672 0.71484-1.5781 1.6836-3.2695 2.7109-5.0625 2.8398-4.9727 6.0664-10.605 5.9492-17.207-0.074219-4.5742-0.84766-8.8203-2.2812-12.637-1.0664-2.8164-3.5781-4.8633-6.543-5.3359-2.9727-0.48047-5.9961 0.67578-7.8789 3.0078-2.2969 2.8203-5.9492 6.6211-10.293 8.6758-4.5 2.1367-10.062 2.5078-13.316 2.5234l-5.4141-219.2c0.11719-0.29688 0.1875-0.61328 0.19141-0.94531 0-0.089844-0.015625-0.17578-0.023438-0.26172 0.58594-1.6484 1.9062-4.9922 3.9453-8.0117 1.0977-1.6211 5.543-6.2109 8.0898-8.7266 1.0195-1.0039 1.3555-2.5156 0.85156-3.8555-0.019531-0.058594-0.91016-2.4688-2.0547-5.9414l2.2656 0.035157h0.046874c1.4805 0 2.6953-1.1875 2.7188-2.6797 0.023438-1.5-1.1758-2.7461-2.6797-2.7656l-4.0742-0.066406c-1.1797-3.9688-2.332-8.375-2.9531-12.172l3.2812 0.054687h0.046875c1.4844 0 2.6992-1.1875 2.7266-2.6797 0.023437-1.5-1.1758-2.7461-2.6797-2.7656l-3.9258-0.070313c-0.17969-3.4727-0.26172-8.125-0.28906-12.777l3.125 0.050782h0.046874c1.4805 0 2.6953-1.1875 2.7188-2.6797 0.023438-1.5-1.1758-2.7461-2.6797-2.7656l-3.2188-0.054687c0.015625-6.8867 0.10938-12.609 0.11719-12.734 0.023438-1.4492-0.8125-2.7695-2.1328-3.3711-1.3164-0.59375-2.8633-0.35938-3.9414 0.61328-0.058594 0.054688-6.3867 5.7266-14.133 7.125-4.7773 0.86328-10.086 0.26562-10.137 0.26172-1.0078-0.11719-2.0195 0.19141-2.793 0.85156-0.76953 0.66016-1.2305 1.6133-1.2656 2.6289 0 0.070312-0.089844 2.6445-0.27344 6.5l-4.2773-0.070313h-0.046876c-1.4844 0-2.6992 1.1875-2.7266 2.6797-0.023438 1.5 1.1758 2.7461 2.6797 2.7656l4.0898 0.066406c-0.21484 3.9961-0.49219 8.5391-0.83594 12.906l-3.9062-0.066406h-0.050782c-1.4805 0-2.6953 1.1875-2.7188 2.6758-0.023437 1.5078 1.1758 2.7461 2.6758 2.7695l3.5234 0.058594c-0.035156 0.37891-0.074219 0.75-0.10938 1.1172-0.40234 3.918-1.6172 8.4492-2.9023 12.43l-5.2734-0.089844c-1.5508 0.039063-2.7461 1.1758-2.7695 2.6758-0.023438 1.5078 1.1758 2.7461 2.6758 2.7695l3.4766 0.058594c-1.0586 2.8281-1.8789 4.707-1.8984 4.7578-0.625 1.4219-0.27344 3.082 0.875 4.1328 0.023438 0.023438 2.5547 2.3516 6.1758 6.5234 2.0625 2.3711 3.8945 6.4805 4.6641 8.4648l-2.1953 213.34c-2.6992-0.57812-7.0703-1.9453-10.938-5.0664-4.2812-3.457-6.4727-5.7148-8.0312-11.465-0.36719-1.3438-0.52344-3.1289-0.67578-4.8477-0.39453-4.4727-0.9375-10.605-6.543-12.086-7.582-1.9961-12.848 7.8281-14.746 13.957-2.5547 8.2422-1.9258 15.219-0.074219 23.809 1.0117 4.6914 3.7773 10.223 6.2227 15.105 1.3398 2.6797 2.6094 5.2109 3.3047 7.0703l0.5625 1.4727c1.4453 3.7383 2.5898 6.6914 1.918 11.773-0.83594 6.3867-6.3164 14.297-10.715 20.652-1.0391 1.4961-2.0195 2.918-2.8867 4.2305-2.9219 4.4336-9.9766 16.281-12.344 30.539-1.6289 9.8086 1.1641 24.398 6.0898 31.867 4.1914 6.3164 11.129 15.332 23.258 20.777zm52.047-127.45c0 0.11719-0.039062 0.22266-0.125 0.30859-0.085938 0.082031-0.17188 0.16797-0.30078 0.125l-18.668-0.10547c-0.23047 0-0.42969-0.19141-0.42969-0.42188l-0.10156-14.707c0.25781-0.49219 0.41797-1.043 0.42188-1.6328l2.2148-215.11 11.262 0.13281 5.4609 221.05c0.011719 0.36719 0.085937 0.71875 0.19531 1.0547zm-28.32-252.22c1.7852-4.4375 5.457-14.328 6.2891-22.43 0.97656-9.4766 1.5938-22.031 1.8594-28.184 2.3242 0.054688 5.3789-0.03125 8.3633-0.57031 4.4688-0.80469 8.4883-2.6719 11.566-4.4883-0.070312 8.6523-0.074218 22.707 0.58984 28.336 0.98828 8.3789 4.9023 20.129 6.6094 24.98-2.2305 2.2578-6.0117 6.1836-7.3594 8.1875-2.418 3.582-3.9844 7.457-4.7266 9.5312l-12.602-0.14453c-0.94141-2.2969-2.9844-6.7969-5.668-9.8906-2.0273-2.3281-3.7305-4.1211-4.9219-5.3281zm-45.891 328.23c2.1445-12.887 8.5781-23.688 11.246-27.738 0.83594-1.2734 1.7891-2.6445 2.7969-4.0977 4.8477-6.9961 10.879-15.707 11.945-23.84 0.91016-6.9219-0.74219-11.203-2.3477-15.348l-0.53906-1.4062c-0.83203-2.2109-2.1797-4.9062-3.6133-7.7656-2.2539-4.4922-4.8008-9.5859-5.6172-13.383-1.6406-7.6328-2.1797-13.375-0.089844-20.133 1.6758-5.4023 4.7773-9.082 5.8906-9.082 0.039062 0 0.074218 0.003907 0.10547 0.011719 0.67188 0.53906 0.96094 3.8906 1.125 5.6875 0.17969 2.0352 0.36719 4.1406 0.89844 6.1094 1.9844 7.3203 5.0898 10.867 10.484 15.219 6.7266 5.4297 14.465 6.7227 16.863 7.0039l0.085938 12.68c0.023437 3.1992 2.6445 5.8125 5.8438 5.8359l18.668 0.10547h0.035156c1.5469 0 3.0625-0.62891 4.1523-1.7227 1.1016-1.1016 1.7344-2.6289 1.7227-4.1953l-0.046874-6.625c3.5234 0.10156 11.359-0.082031 17.941-3.2031 4.4688-2.1211 8.7812-5.7031 12.82-10.66 0.26172-0.32422 0.67188-0.47266 1.0898-0.41406 0.40625 0.066407 0.75391 0.34766 0.90234 0.73047 1.1367 3.0273 1.75 6.457 1.8125 10.191 0.082031 4.6016-2.5 9.1133-4.9922 13.477-1.1133 1.9453-2.1602 3.7773-3.0625 5.7695-2.9883 6.5898-4.3516 9.6016-3.1523 17.645 1.0586 7.0977 4.8984 11.496 9.3359 16.59 1.9531 2.2383 3.9688 4.5547 6.0156 7.375 3.8086 5.2656 12.57 19.289 11.723 35.848-0.75 14.625-5.8906 21.02-15.742 28.336-11.492 8.5352-29.07 11.098-38.52 11.863-31.465 2.5508-43.465-2.8398-50.637-6.0625-8.0273-3.6055-14.238-9.1992-20.148-18.141-3.4844-5.2578-6.4258-18.055-4.9961-26.66z"/>
  <path d="m385.31 550.46h28.418c0.99609 0 1.9688-0.40234 2.6484-1.0977 0.71094-0.71094 1.1094-1.6523 1.1094-2.6602v-12.785c0-1.0078-0.39453-1.9492-1.0898-2.6445-0.69531-0.70703-1.668-1.1133-2.6641-1.1133h-28.418c-1.0078 0-1.9492 0.39453-2.6484 1.0977-0.71094 0.71094-1.1094 1.6523-1.1094 2.6602v12.785c0 1.0078 0.39453 1.9492 1.0977 2.6484 0.70703 0.71484 1.6484 1.1094 2.6562 1.1094zm0.78516-15.762h26.852v11.219h-26.852z"/>
  <path d="m385.31 519.32h28.418c0.99219 0 1.9648-0.40234 2.6484-1.0938 0.71094-0.71094 1.1094-1.6523 1.1094-2.6602v-12.781c0-0.99609-0.40234-1.9688-1.0898-2.6445-0.69531-0.70703-1.668-1.1133-2.6641-1.1133h-28.418c-1.0078 0-1.9492 0.39453-2.6445 1.0898-0.70703 0.69531-1.1133 1.6719-1.1133 2.6641v12.781c0 1.0078 0.39453 1.9492 1.1016 2.6562 0.70703 0.71484 1.6484 1.1016 2.6523 1.1016zm0.78516-15.754h26.852v11.215h-26.852z"/>
  <path d="m439.57 579.5c0 4.0547 3.3594 7.3516 7.4922 7.3516 4.1328 0 7.4961-3.3008 7.4961-7.3516 0-4.0508-3.3594-7.3516-7.4961-7.3516-4.1289 0-7.4922 3.2969-7.4922 7.3516zm7.4961-3.7188c2.1328 0 3.8633 1.668 3.8633 3.7188 0 2.0508-1.7344 3.7188-3.8633 3.7188-2.1328 0-3.8633-1.668-3.8633-3.7188 0-2.0508 1.7305-3.7188 3.8633-3.7188z"/>
  <path d="m436.5 557.54c4.1328 0 7.4922-3.293 7.4922-7.3516 0-4.0547-3.3594-7.3516-7.4922-7.3516-4.1328 0-7.4961 3.293-7.4961 7.3516s3.3672 7.3516 7.4961 7.3516zm0-11.066c2.1328 0 3.8633 1.668 3.8633 3.7188 0 2.0508-1.7344 3.7188-3.8633 3.7188-2.1328 0-3.8633-1.668-3.8633-3.7188 0-2.0547 1.7344-3.7188 3.8633-3.7188z"/>
  <path d="m418.11 585.45c0 2.6758 2.1758 4.8555 4.8516 4.8555 2.0352 0 3.7734-1.2578 4.5-3.043h0.83203c0.53516 0.76172 1.4023 1.2578 2.3867 1.2578 1.6211 0 2.9414-1.3398 2.9414-2.9922 0-1.6523-1.3203-2.9922-2.9414-2.9922-0.91016 0-1.7148 0.42969-2.2539 1.0938l-0.96484 0.003906c-0.71875-1.7773-2.4648-3.043-4.5-3.043-2.6758 0-4.8516 2.1797-4.8516 4.8594zm4.8516-2.1367c0.38672 0 0.73438 0.13672 1.0547 0.31641h-0.4375c-1.0039 0-1.8125 0.8125-1.8125 1.8125 0 1.0039 0.8125 1.8125 1.8125 1.8125h0.4375c-0.3125 0.17969-0.66016 0.31641-1.0547 0.31641-1.1758 0-2.1328-0.95703-2.1328-2.1328 0-1.168 0.96094-2.125 2.1328-2.125z"/>
  <path d="m384.34 573.21h30.277c0.86719 0 1.6836-0.33594 2.3086-0.95703 0.45312-0.45703 0.76172-1.0273 0.88672-1.7188l1.1875 0.039063c0.019532 0 0.20312 0.003906 0.22266 0.003906 0.84766 0 1.6523-0.32422 2.2734-0.92188 0.625-0.60938 0.98438-1.4609 0.98438-2.332v-8.0117c0-1.7695-1.3867-3.1992-3.1523-3.2539l-1.4844-0.046875c-0.097656-0.69531-0.41797-1.3398-0.92578-1.8555-0.61328-0.60938-1.4297-0.94531-2.3008-0.94531h-30.277c-0.85547 0-1.6992 0.34766-2.3086 0.95703-0.60938 0.61328-0.94531 1.4297-0.94531 2.3008v13.492c0 0.86719 0.33594 1.6836 0.95312 2.3008 0.60547 0.60156 1.4453 0.94922 2.3008 0.94922zm0.73828-16.02h28.84c0.22266 1.5469 1.5156 2.7305 3.1172 2.7812l1.457 0.050782v6.5352l-1.3516-0.046875c-0.84766 0-1.6523 0.32422-2.2734 0.92188-0.47266 0.46484-0.79688 1.0586-0.92578 1.7773h-28.867l-0.003906-12.02z"/>
 </g>
</svg>