<!DOCTYPE svg PUBLIC "-//W3C//DTD SVG 1.1//EN" "http://www.w3.org/Graphics/SVG/1.1/DTD/svg11.dtd">
<!-- Uploaded to: SVG Find, www.svgfind.com, Transformed by: SVG Find Mixer Tools -->
<svg fill="#000000" width="800px" height="800px" version="1.1" viewBox="144 144 512 512" xmlns="http://www.w3.org/2000/svg" transform="rotate(0)">
<g id="SVGRepo_bgCarrier" stroke-width="0"/>
<g id="SVGRepo_tracerCarrier" stroke-linecap="round" stroke-linejoin="round"/>
<g id="SVGRepo_iconCarrier"> <g fill-rule="evenodd"> <path d="m474.7 559.52c-1.6367-3.2148-4.0625-6.6602-6.8359-10.148-5.707-7.1758-12.953-14.582-17.07-20.516-3.918-5.6484-6.4844-12.117-8.1562-18.434-1.9883-7.5234-2.7148-14.848-2.8711-20.43-0.10938-3.9805 0.089844-7.2656 0.46875-10.098 0.52344-3.9688 1.3906-7.0625 2.1797-9.957 0.83203-3.0312 1.543-5.4766 1.8633-7.7852 0.29297-2.0703 0.30078-4.0508-0.10547-6.1836-0.49219-2.5742-2.0195-4.8047-4.1172-6.3594-1.9648-1.457-4.4219-2.2969-6.8633-2.3008-2.3594-0.003906-3.9492 0.28906-5.4961 0.93359-1.3047 0.55078-2.5859 1.3789-4.3008 2.6797-1.3594 1.0273-2.7852 2.125-4.2891 2.9023-1.0781 0.55859-2.1914 0.98438-3.3711 0.78906-0.44922-0.070313-0.83203-0.26172-1.1445-0.46484-0.17188-0.10547-0.31641-0.21484-0.45312-0.32422l-4.4883-183.87v-0.046875s-0.015626-1.0625 0.34375-2.832c0.17969-0.89062 0.44922-1.9414 0.85156-3.1133 0.37109-1.0977 1.0938-2.0352 1.8242-2.8008 1.4297-1.5156 2.9727-2.4102 2.9727-2.4102 1.4141-0.80469 2.1016-2.4688 1.668-4.0352l-0.55469-2.0117 3.6484-1.0469c1.168-0.33594 1.8398-1.5508 1.5078-2.7188-0.33203-1.168-1.5625-1.8398-2.7188-1.5078l-3.5977 1.0391-1.9844-7.2031 3.8086-1.0938c1.168-0.33594 1.8398-1.5508 1.5078-2.7188s-1.5664-1.8398-2.7188-1.5078l-3.7617 1.082-1.8555-6.7227 3.8359-1.1016c1.168-0.33594 1.8398-1.5508 1.5078-2.7188-0.33594-1.168-1.5664-1.832-2.7188-1.5078l-3.7891 1.0938-2.2148-8.0508 4.2305-1.2188c1.168-0.33594 1.8398-1.5508 1.5078-2.7188-0.33594-1.168-1.5625-1.8398-2.7188-1.5078l-4.1875 1.2031-2.2969-8.3398 3.6328-1.043c1.168-0.33203 1.8398-1.5508 1.5078-2.7188-0.33594-1.168-1.5625-1.832-2.7188-1.5078l-3.582 1.0312-2.1562-7.8242 3.9648-1.1367c1.168-0.33594 1.8398-1.5508 1.5078-2.7188-0.33594-1.168-1.5625-1.8398-2.7188-1.5078l-3.9414 1.1523-1.4453-5.2461c-0.45312-1.6406-1.2578-3.1484-2.3438-4.4141-1.082-1.2656-2.4375-2.2969-3.9961-3.0039-0.003906 0-0.011719-0.003906-0.015625-0.003906-1.2188-0.54297-2.707-1.1289-4.4492-1.6641-1.375-0.41797-2.9062-0.80469-4.5781-1.1133l-4.6797-0.4375c-1.5234-0.050781-3.0039 0.28906-4.3242 0.94141-1.3203 0.66016-2.4805 1.6406-3.3516 2.8906-0.87109 1.2461-1.4023 2.6719-1.5703 4.1367s0.023438 2.9727 0.58984 4.3828c0 0.003906 0.003906 0.011719 0.003906 0.015625 1.4453 3.5469 3.2539 8.1484 4.8516 12.695 1.0391 2.9531 1.9844 5.8906 2.6797 8.4883 1.582 5.918 2.8984 11.43 4.0469 17.332 1.0391 5.3438 1.9336 11.008 2.7656 17.59 0.32422 2.5586 0.62109 6.832 0.87109 11.285 0.44141 7.8008 0.75 16.156 0.78516 17.148l-4.0977 197.23c-1.2539 0.085937-3.125 0.089844-5.4297-0.29688-2.125-0.35156-4.5859-1.0312-7.2109-2.2617-2.9531-1.3867-5.5781-3.7031-7.6562-6.3125-2.2578-2.8359-3.8906-6.0273-4.5-8.8555-1.4258-6.5781-2.6484-10.438-4.082-13.02-1.8828-3.3945-4.0898-4.9375-7.7031-6.8555-2.8047-1.4922-6.2656-2.1172-9.7539-1.9648-3.2734 0.14062-6.5664 0.96094-9.2734 2.2539-3.6133 1.7227-5.2969 4.6211-5.3672 8.4844-0.054687 3.0039 1.0664 6.8203 3.2539 11.16 1.5312 3.0391 6.2109 11.426 10.445 20.859 2.0859 4.6484 4.0664 9.5586 5.4805 14.184 2.1211 6.9141 3.7148 12.16 4.4727 17.453 0.52344 3.6328 0.64453 7.2852 0.28125 11.543-0.37109 4.3359-1.0977 8.5-2.0469 12.586-0.97266 4.2188-2.1797 8.3516-3.4883 12.52-1.3438 4.293-3.4922 11.094-5.0586 18.277-0.9375 4.2891-1.668 8.707-1.9258 12.832-0.21094 3.3945 0.085937 9.0273 1.9609 15.18 1.3672 4.4922 3.5703 9.2617 6.9961 13.648 2.9883 3.8203 6.0039 6.6719 9.1523 9.0742 3.3086 2.5234 6.7617 4.5508 10.504 6.7109 3.9844 2.3008 8.6016 4.3672 13.488 6.1211 4.5547 1.6328 9.3516 2.9883 14.09 4.0039 3.8633 0.83203 8.6094 1.3438 13.383 1.6367 7.9492 0.48828 15.957 0.35938 19.824 0.15234 7.918-0.41797 14.16-1.2695 19.504-2.5781 7.125-1.75 12.688-4.3008 18.449-7.793 5.1992-3.1484 9.3359-6.4883 12.496-10.098 3.9297-4.4844 6.3945-9.3867 7.5273-14.883 1.0273-4.9922 1.543-10.352 0.78906-16.184-0.58984-4.8203-2.0781-9.9531-4.8867-15.477zm-86.652-91.094c0.046875-0.21484 0.074219-0.4375 0.082031-0.66406l4.0508-195.75 10.402-0.019531c0.46875 19.246 4.5156 184.64 4.5156 184.64 0.011719 0.36328 0.089844 0.70703 0.19531 1.0391l-0.24609 25.191c-0.003906 0.39844-0.097656 0.78125-0.25781 1.1289-0.16797 0.34766-0.40625 0.66406-0.71484 0.91797-0.30078 0.25-0.66016 0.43359-1.0312 0.52734-0.37109 0.10156-0.76953 0.11719-1.1602 0.046875l-13.93-2.5039c-0.59375-0.10547-1.1094-0.41797-1.4648-0.85547-0.36328-0.4375-0.57422-0.99609-0.57031-1.6016zm-4.543-263.43c-0.73438-2.7617-1.7383-5.8789-2.8398-9.0117-1.6367-4.6602-3.4883-9.3711-4.9727-13.008-0.12109-0.29297-0.15625-0.60547-0.12109-0.91016 0.035157-0.30859 0.14453-0.60547 0.32813-0.86328 0.17969-0.26172 0.42187-0.46484 0.69922-0.60547 0.27734-0.13672 0.58594-0.20703 0.90234-0.19531l3.6328 0.32812c1.3867 0.25781 2.6484 0.57422 3.7891 0.92188 1.4102 0.42969 2.6211 0.90234 3.6133 1.3438 0.58984 0.26562 1.1016 0.66016 1.5117 1.1367 0.41406 0.48438 0.71875 1.0547 0.89062 1.6758l18.848 68.391c-0.96094 0.76172-2.082 1.7695-3.0898 2.9883-1.0664 1.2891-2.0039 2.8047-2.5781 4.4844-0.64453 1.8906-1.0234 3.5312-1.2461 4.8398-0.066406 0.38672-0.11719 0.74219-0.15625 1.0664l-10.578 0.019531c-0.125-3.2461-0.37891-9.2617-0.70703-14.984-0.26563-4.6445-0.58594-9.0977-0.91797-11.77-0.85547-6.7578-1.7773-12.57-2.8477-18.055-1.1836-6.0508-2.5391-11.711-4.1602-17.793zm-55.043 231.55c1.8984-0.90625 4.207-1.4648 6.5078-1.5625 2.1719-0.097656 4.3477 0.21094 6.0977 1.1367 2.1953 1.1641 3.6641 1.9492 4.8047 4.0156 1.2148 2.1875 2.1367 5.4961 3.3438 11.074 0.8125 3.7539 2.8984 8.0273 5.8945 11.789 2.7617 3.4648 6.293 6.4883 10.219 8.3281 3.3008 1.543 6.3867 2.3945 9.0625 2.8398 3.6289 0.60547 6.5078 0.47266 8.2109 0.27734l-0.035156 3.4648c-1.1836 0.097657-3.6055 0.26172-6.0469 0.23047-1.5586-0.019531-3.1133-0.11719-4.3164-0.37891-1.9297-0.42188-4.1875-1.1328-6.3633-2.0625-2.0977-0.89844-4.1211-1.9883-5.6914-3.2383-1.832-1.4609-4.0117-3.1641-6.1211-5.4648-1.6289-1.7734-3.2188-3.9102-4.5859-6.5664-2.3594-4.5781-3.4727-10.027-5.1328-14.359-0.52344-1.3672-1.1016-2.6289-1.7773-3.7383-1.0742-1.7734-2.9922-2.7695-5.2891-3.1641-3.332-0.57031-7.4805 0.16797-9.9922 0.74609-0.003906-0.023438-0.015625-0.058594-0.019531-0.085938-0.20703-1.4844-0.023438-2.6875 1.2305-3.2812zm11.762 146.56c-1.5625-5.1328-1.8398-9.8359-1.6641-12.664 0.23047-3.7773 0.91016-7.8242 1.7734-11.754 1.5156-6.9492 3.5977-13.523 4.8984-17.672 1.6328-5.2148 3.1172-10.387 4.2188-15.715 0.73438-3.5508 1.293-7.168 1.6172-10.906 0.41797-4.8633 0.27344-9.0273-0.32812-13.176-0.8125-5.6172-2.4688-11.195-4.7148-18.523-1.5-4.8984-3.5859-10.098-5.793-15.012-4.2891-9.5625-9.0234-18.066-10.578-21.148-0.625-1.2383-1.1523-2.4141-1.5625-3.5234 1.8398-0.43359 4.6094-0.9375 7.1523-0.82031 1.8906 0.089844 3.6875 0.43359 4.5195 1.8047 0.57812 0.95703 1.0664 2.0508 1.5273 3.2305 1.7031 4.4336 2.8672 9.9961 5.2734 14.68 1.5156 2.9492 3.2734 5.3086 5.0781 7.2734 2.2422 2.4453 4.5391 4.2617 6.4883 5.8086 1.7773 1.4141 4.0664 2.6719 6.4375 3.6875 2.3789 1.0195 4.8359 1.7891 6.9414 2.2539 1.3867 0.30078 3.1758 0.42969 4.9688 0.45312 2.4141 0.03125 4.8008-0.11719 6.1211-0.22266 0.13281 1.6406 0.74219 3.1641 1.7422 4.3789 1.1484 1.3906 2.7773 2.3828 4.6602 2.7266l13.93 2.5078c1.168 0.21094 2.3594 0.16016 3.4805-0.13672 1.125-0.29688 2.1875-0.83203 3.0977-1.5938 0.91797-0.76172 1.6406-1.6992 2.1445-2.7461 0.37891-0.78906 0.57812-1.6484 0.67969-2.5234 0.84766 0.45703 2.0195 1.1367 3.2227 2.0039 1.3164 0.94531 2.6719 2.1016 3.5938 3.4102 2.0703 2.9375 2.9531 5.4609 3.2656 7.7539 0.45313 3.3164-0.17969 6.1719-0.15234 9.0547 0.074219 6.6719-1.1797 19.477 0.054687 31.215 0.83203 7.8906 2.8125 15.289 6.8867 20.234 0.86719 1.0547 1.9141 2.0352 2.9062 2.8516 0.65625 0.54297 1.2852 1.0117 1.8086 1.3906-0.41406 0.50391-0.98438 1.1367-1.7383 1.8477-0.86719 0.8125-1.9766 1.7031-3.3516 2.6094-0.98438 0.64453-2.1875 1.1484-3.3789 1.5469-1.4062 0.46875-2.8008 0.78516-3.8633 0.99219l0.29297-8.8672c0.03125-0.86328-0.11719-1.7148-0.41406-2.5039-0.30078-0.78906-0.75391-1.5273-1.3438-2.1523-0.59375-0.62891-1.293-1.125-2.0703-1.4727-0.76953-0.34766-1.6133-0.53906-2.4805-0.5625l-36.188-0.94531c-0.86328-0.019532-1.707 0.125-2.5 0.42969-0.78906 0.30078-1.5156 0.76172-2.1406 1.3555s-1.1172 1.3008-1.4609 2.0742c-0.34375 0.76953-0.52734 1.6133-0.55078 2.4727l-0.070313 3.0938c-0.74609 0.3125-1.7617 0.85156-2.918 1.7578-1.3164 1.0312-2.8398 2.5625-4.3359 4.8477-0.98828 1.5078-1.5938 3.3516-1.8477 5.3242-0.22656 1.7578-0.17969 3.6211 0.10156 5.3945 0.30078 1.9336 1.0391 3.8633 1.8594 5.5273 0.76562 1.5586 1.6016 2.8828 2.1953 3.75-1.4062 1.4141-4.8555 4.2031-10.812 5.0078-3.3672 0.45312-7.5156 0.26172-12.516-1.082-1.9141-2.9766-3.2617-6.0703-4.1641-9.0273zm78.078-12.562c-0.011719 0.23828 0.039063 0.47266 0.13281 0.69141l-2.2656 13.879c-1.3242 0.57422-3.2734 1.6758-4.4844 3.543-0.68359 1.0625-1.125 2.5039-1.375 3.5859-2.4336 0.61328-8.0195 1.8086-13.371 1.582-4.8711-0.22656-10.723-2.1016-13.438-3.0625-0.054688-0.97266-0.32812-2.2148-1.0547-3.6719-0.99219-1.9883-2.8164-2.9609-4.1875-3.4375l-2.4648-20.168c-0.003907-0.035156-0.023438-0.058593-0.03125-0.097656 0.074219-0.17969 0.12109-0.37109 0.125-0.57422l0.097656-4.2266c0.011719-0.43359 0.10547-0.85156 0.27734-1.2383 0.17188-0.38672 0.41797-0.74219 0.73047-1.0391s0.67578-0.52344 1.0742-0.67969c0.39453-0.15234 0.82031-0.22656 1.25-0.21484l36.188 0.94141c0.43359 0.011719 0.85156 0.10547 1.2383 0.28125 0.38672 0.17188 0.74219 0.42188 1.0391 0.73438 0.29688 0.31641 0.52344 0.68359 0.67578 1.0781 0.15234 0.39844 0.22266 0.82031 0.20703 1.2539zm53.562 19.191c-0.88672 4.2969-2.832 8.1211-5.9102 11.629-2.7305 3.1172-6.332 5.9766-10.828 8.6953-5.1484 3.1133-10.102 5.4102-16.465 6.9688-4.9766 1.2188-10.801 1.9961-18.188 2.3828-3.7148 0.19531-11.391 0.31641-19.02-0.15234-4.3867-0.26562-8.7617-0.72656-12.312-1.4922-4.4336-0.95703-8.9258-2.2266-13.191-3.7539-4.4648-1.6016-8.6875-3.4805-12.328-5.582-3.4648-2-6.6797-3.8633-9.7422-6.2031-2.2148-1.6914-4.3477-3.668-6.457-6.1172 5.2969 0.92188 9.5938 0.58594 12.973-0.29688 7.5117-1.9609 10.715-6.5859 10.715-6.5859 0.41406-0.58594 0.39844-1.375-0.050781-1.9414 0 0-1.4102-1.8047-2.6289-4.2773-0.68359-1.3867-1.3086-2.9883-1.5625-4.6016-0.23047-1.4766-0.27344-3.0195-0.085938-4.4805 0.19141-1.4648 0.60938-2.8516 1.3398-3.9648 1.0039-1.5312 2.0156-2.6641 2.9492-3.4961 0.20703-0.1875 0.40234-0.34766 0.59766-0.50391l2.4102 19.699c0.12109 1.0078 0.92188 1.7969 1.9297 1.9141 0.37891 0.046875 2 0.4375 2.5078 1.4492 0.76172 1.5234 0.59375 2.3711 0.60938 2.3711v-0.003907c-0.21484 0.54297-0.21094 1.1484 0.015625 1.6875 0.23047 0.53906 0.66406 0.96094 1.2109 1.1797 0.36719 0.14453 9.0781 3.5977 16.383 3.9297 0.55078 0.023438 1.1016 0.035156 1.6523 0.035156 7.2617 0 14.141-2.0469 14.453-2.1406 0.81641-0.24609 1.4141-0.94141 1.5352-1.7852 0.13672-0.91016 0.54297-2.5859 0.99609-3.2852 0.80469-1.2383 2.6953-2.0039 3.3438-2.1914 0.82812-0.23047 1.4414-0.91797 1.5781-1.7617l2.5039-15.348c1.082-0.22656 2.3711-0.53906 3.6875-0.97656 1.4609-0.48828 2.9258-1.1172 4.1328-1.9102 1.9492-1.2812 3.4141-2.5508 4.4805-3.6211 1.8281-1.8477 2.5273-3.1836 2.5273-3.1836 0.41406-0.75391 0.15625-1.6992-0.57422-2.1445 0 0-1.3516-0.83203-2.8672-2.0859-0.83984-0.69531-1.7383-1.5273-2.4727-2.418-3.7227-4.5195-5.4102-11.316-6.168-18.52-1.2227-11.629 0.03125-24.309-0.039063-30.914-0.039062-3.5781 0.82812-7.125-0.26562-11.453-0.55078-2.1719-1.5781-4.5391-3.4414-7.1797-0.90234-1.2812-2.125-2.457-3.4102-3.4648-2.75-2.168-5.7148-3.5508-5.9141-3.6406l0.19531-19.113c0.59766 0.23047 1.2461 0.42188 1.9336 0.53516 2.2227 0.35938 4.3828-0.015625 6.4531-0.875 2.3281-0.96875 4.5547-2.5938 6.625-4.1562 1.1172-0.84766 1.9141-1.4414 2.7656-1.7969 0.76563-0.31641 1.5664-0.38672 2.7305-0.38281 0.94531 0.003907 1.8906 0.34766 2.6562 0.91016 0.66406 0.49219 1.2109 1.1602 1.3672 1.9805 0.25 1.3242 0.23047 2.5586 0.050781 3.8477-0.29297 2.0469-0.94531 4.2109-1.6836 6.9023-0.86719 3.168-1.7969 6.5547-2.3789 10.902-0.41797 3.1484-0.64844 6.8008-0.52344 11.227 0.16797 6.0195 0.95703 13.93 3.1016 22.051 1.875 7.0898 4.7852 14.328 9.1836 20.668 4.1875 6.0352 11.539 13.586 17.348 20.887 2.4531 3.082 4.6211 6.1094 6.0664 8.9492 2.3945 4.6953 3.6719 9.0586 4.207 13.156 0.63672 4.9961 0.17188 9.5781-0.70703 13.844z"/> <path d="m381.05 510.86 28.66 3.8281c1.4922 0.20312 2.9219-0.22656 4.0312-1.0742 1.1094-0.84766 1.8945-2.1172 2.0898-3.6055l1.2109-9.0703h0.015625c0.19531-1.4961-0.22656-2.9258-1.0742-4.0352-0.84766-1.1094-2.1211-1.8945-3.6133-2.0977l-28.66-3.8281c-1.4922-0.19531-2.9219 0.22656-4.0352 1.0742-1.1094 0.84766-1.8945 2.1172-2.0977 3.6133l-1.2109 9.0703c-0.20312 1.4922 0.22656 2.9219 1.0742 4.0312 0.84375 1.1094 2.1172 1.8945 3.6094 2.0938zm0.87891-14.613c0.039062-0.29297 0.19141-0.53906 0.40625-0.70703s0.5-0.24609 0.78906-0.21094l28.656 3.8359c0.29297 0.039062 0.53906 0.19141 0.70703 0.40625 0.16797 0.21484 0.24609 0.49219 0.20703 0.78516h0.011719l-1.2148 9.0703c-0.039063 0.29297-0.19531 0.54297-0.41406 0.71094-0.21484 0.16797-0.5 0.25-0.79688 0.21094l-28.656-3.8359c-0.29297-0.039063-0.54297-0.19531-0.71094-0.41406-0.16797-0.21484-0.25-0.5-0.21094-0.78906z"/> <path d="m411.28 531.5-28.914-0.30469c-1.5078-0.015625-2.875 0.57812-3.8711 1.5586-0.99609 0.97656-1.6211 2.332-1.6367 3.8398l-0.097657 9.1484c-0.015624 1.5078 0.57813 2.875 1.5586 3.8711 0.97266 0.99609 2.332 1.6211 3.8398 1.6367l28.914 0.30859c1.5078 0.015624 2.8711-0.57813 3.8711-1.5586 0.99609-0.97266 1.6172-2.3281 1.6367-3.8359l0.097656-9.1484h0.011719c0.015625-1.5078-0.57812-2.875-1.5586-3.875-0.98828-1-2.3438-1.625-3.8516-1.6406zm0.91797 14.617c-0.003906 0.29688-0.125 0.5625-0.32422 0.75391-0.19531 0.19141-0.46484 0.3125-0.76172 0.30859l-28.914-0.31641c-0.29687 0-0.5625-0.125-0.75-0.32422-0.19141-0.19531-0.30859-0.46484-0.30078-0.76172l0.10156-9.1484c0.003906-0.29297 0.125-0.55859 0.32422-0.75 0.19531-0.19141 0.46484-0.30859 0.76172-0.30859l28.914 0.31641c0.29297 0.003907 0.55859 0.125 0.74609 0.31641 0.19141 0.19531 0.30859 0.46484 0.30078 0.75391h0.015625z"/> <path d="m354.66 589.42c3.6992 0 6.707-2.8633 6.707-6.3789s-3.0078-6.3789-6.707-6.3789c-3.6992 0-6.6992 2.8633-6.6992 6.3789s3 6.3789 6.6992 6.3789zm0-10.059c2.207 0 4 1.6523 4 3.6797 0 2.0234-1.7969 3.6797-4 3.6797-2.207 0-4-1.6523-4-3.6797 0-2.0312 1.793-3.6797 4-3.6797z"/> <path d="m360.02 553.16c3.6992 0 6.6992-2.9492 6.6992-6.5703 0-3.6211-3.0078-6.5703-6.6992-6.5703s-6.707 2.9492-6.707 6.5703c0 3.625 3.0078 6.5703 6.707 6.5703zm0-10.434c2.207 0 4 1.7344 4 3.8633 0 2.1328-1.793 3.8633-4 3.8633s-4-1.7344-4-3.8633c0-2.1289 1.793-3.8633 4-3.8633z"/> <path d="m354.66 571.13c3.6992 0 6.707-2.8633 6.707-6.3789s-3.0078-6.3789-6.707-6.3789c-3.6992 0-6.6992 2.8633-6.6992 6.3789s3 6.3789 6.6992 6.3789zm0-10.059c2.207 0 4 1.6523 4 3.6797 0 2.0234-1.7969 3.6719-4 3.6719-2.207 0-4-1.6484-4-3.6719 0-2.0273 1.793-3.6797 4-3.6797z"/> <path d="m410.88 577.18-28.816-1.2852c-0.76953 0.03125-1.4023 0.55469-1.4375 1.3086-0.035156 0.76172 0.55469 1.4023 1.3086 1.4375l28.816 1.2852h0.066406c0.73047 0 1.3359-0.57422 1.3711-1.3086 0.039062-0.76172-0.55078-1.4023-1.3086-1.4375z"/> </g> </g>
</svg>