<?xml version="1.0" encoding="UTF-8"?>
<!-- Uploaded to: SVG Find, www.svgfind.com, Generator: SVG Find Mixer Tools -->
<svg fill="#000000" width="800px" height="800px" version="1.1" viewBox="144 144 512 512" xmlns="http://www.w3.org/2000/svg">
 <g fill-rule="evenodd">
  <path d="m359.04 623.8c9.4883 2.2266 24.93 2.9102 39.352 2.9102 10.594 0 20.641-0.37109 27.363-0.76953 16.582-0.99219 38.953-9.8359 47.758-24.27 8.2734-13.562 11.734-32.371 8.8164-47.914-2.832-15.105-8.6367-26.648-13.758-36.828-6.5039-12.922-12.117-24.078-10.801-39.562 0.41797-4.9375 2.2578-9.5273 4.2031-14.391 2.3633-5.9062 4.8047-12.016 5.1953-19.562 0.84766-16.348-3.75-26.148-12.934-27.594-5.7773-0.90234-9.7734 1.2305-12.602 6.7148-0.79688 1.543-1.3711 3.5625-2.0391 5.8945-1.582 5.5352-3.75 13.121-9.8125 16.715-5.168 3.0664-10.504-0.25781-12.75-2.0117l-4.8906-195.99c0-0.085937 0.074219-8.625 0.83984-13.508 0.26562-1.707 1.1797-3.5312 2.2305-5.6445 1.5469-3.0938 3.4727-6.9492 4.0859-12.066 0.66406-5.5117-0.33594-9.582-1.0664-12.555-0.35156-1.4258-0.68359-2.7773-0.58594-3.4648 0.16797-1.1641 0.71484-1.7266 2.0508-3.0039 1.4375-1.3711 3.4062-3.25 4.3789-6.5234 2.1328-7.1875-0.51562-13.262-7.082-16.234-2.5508-1.1523-5.5234-1.1445-8.8477 0.03125-3.2695 1.1602-6.0508 3.3164-8.0117 6.1055l-3.6836-1.3945c-1.4102-0.53516-2.9766 0.17188-3.5117 1.582-0.53516 1.4062 0.17188 2.9766 1.582 3.5117l3.168 1.2031c-0.43359 1.1094-0.92188 2.3438-1.4609 3.7031l-3.2344-1.2305c-1.4102-0.53516-2.9766 0.17188-3.5117 1.582-0.53516 1.4102 0.17578 2.9766 1.582 3.5117l3.1758 1.2031c-0.49219 1.2578-1.0117 2.5742-1.543 3.9141l-3.2461-1.2305c-1.4102-0.53516-2.9766 0.17188-3.5117 1.582-0.53516 1.4062 0.17578 2.9766 1.582 3.5117l3.1797 1.2109c-0.45312 1.1523-0.91016 2.3125-1.3672 3.4766l-3.3438-1.2695c-1.4023-0.52734-2.9766 0.17578-3.5117 1.582-0.53516 1.4062 0.17578 2.9766 1.582 3.5117l3.2852 1.2461c-0.46484 1.1797-0.91797 2.332-1.3672 3.4766l-3.4492-1.3086c-1.4102-0.53516-2.9766 0.17188-3.5117 1.582-0.53516 1.4062 0.17188 2.9766 1.582 3.5117l3.3906 1.2852c-0.55469 1.4102-1.0664 2.7266-1.5586 3.9766l-3.3672-1.2734c-1.4102-0.52734-2.9766 0.17188-3.5117 1.582-0.53516 1.4102 0.17578 2.9766 1.582 3.5117l3.3164 1.2578c-0.070313 0.17969-0.15625 0.39453-0.22266 0.5625-1.3281 3.375-0.52734 7.2148 1.9609 9.7031 0.86719 0.92188 1.6836 1.9414 2.418 3.0273 0.50391 0.75 1.1328 3.0547 1.4492 4.9023l-4.5508 173.75c-3.6484-0.21094-7.6172-1.3398-10.496-2.332-0.94141-0.32422-1.9688-0.73438-3.0625-1.168-3.9961-1.5859-8.957-3.543-14.168-3.4766-7.5938 0.13281-13.418 3.2227-18.344 9.7383-5.2305 6.918-6.793 17.73-4.1719 28.922 0.71875 3.0664 1.9531 6.2969 3.2578 9.7227 3.4102 8.9258 7.6562 20.035 5.0977 34.945-1.1484 6.6914-5.6797 16.34-8.9883 23.383l-1.082 2.2812c-4.7109 9.7852-17.215 35.781-11.406 63.277 5.7578 27.215 32.758 35.559 40.898 37.469zm74.414-172.46c8.5312-5.0625 11.254-14.609 13.062-20.93 0.53906-1.8906 1.0469-3.668 1.5156-4.5742 1.5117-2.9336 2.5938-3.2891 5.0898-2.9023 7.2734 1.1445 7.0938 15.684 6.8633 20.113-0.32812 6.3594-2.4492 11.652-4.6914 17.262-2.0547 5.1406-4.1797 10.449-4.6914 16.453-1.3164 15.457 3.4648 27.07 9.2148 38.738-1.1875 0.046875-2.6055 0.11719-4.293 0.22266-1.4766-4.6602-5.8398-8.0469-10.977-8.0469-5.1172 0-9.4648 3.3594-10.957 7.9922l-10.508 0.066407c-0.29297-1.2148-0.89063-2.332-1.7969-3.2383-1.293-1.2891-3.0078-2-4.8359-2h-34.309c-1.8242 0-3.543 0.71094-4.8398 2.0039-1.0742 1.0781-1.7148 2.4531-1.9102 3.9336l-10.523 0.39844c-0.21484-0.046875-0.29297-0.10547-0.3125-0.26172-0.66406-5.0117-2.2539-17.234-2.6094-22.504-0.074219-1.1602-0.17188-2.2969-0.26172-3.4258-0.64062-7.9258-1.2383-15.41 3.1602-29.414 3.0977-9.8633 5.918-13.375 10.203-17.98 2.2109-2.3789 5.3086-4.5664 7.6367-6.0391l-0.22266 9.7305c-0.054688 2.3672 0.875 4.6914 2.543 6.3672 1.6367 1.6406 3.8906 2.5781 6.207 2.5781h0.15234l15.332-0.27344c3.6172-0.058594 6.6484-2.2617 7.9297-5.3945 4.1562 2.6562 11.316 5.5859 18.828 1.125zm3.9297 67.844c0-0.39844 0.054687-0.78516 0.11719-1.168 0.11719-0.22656 0.19531-0.46875 0.19141-0.74219 0-0.015625-0.003906-0.023437-0.011718-0.039062 0.85547-2.9922 3.5859-5.2031 6.8516-5.2031 3.9453 0 7.1484 3.2109 7.1484 7.1484v69.324c0 3.9453-3.2109 7.1523-7.1484 7.1523-3.9453 0-7.1523-3.2109-7.1523-7.1523v-69.32zm-18.465-1.8555v42.188c0 0.66016-0.25781 1.2852-0.72656 1.7539s-1.0938 0.72656-1.7578 0.72656h-34.309c-0.66016 0-1.2852-0.25781-1.75-0.71875-0.46875-0.47266-0.73047-1.0977-0.73047-1.7578v-42.188c0-0.66406 0.25781-1.2891 0.72656-1.7539 0.46875-0.46875 1.0938-0.72656 1.7578-0.72656h34.309c0.66016 0 1.2852 0.25781 1.7539 0.72656 0.46875 0.46484 0.72656 1.0898 0.72656 1.75zm-13.898-267.15 4.832 193.98c0 0.039062-0.015625 0.082031-0.015625 0.125l-0.003906 0.64062c0 0.058594-0.003907 0.12109 0 0.17969l-0.011719 1.7852c-0.011719 1.8047-1.4375 3.2461-3.2383 3.2734l-15.332 0.27344c-0.92188-0.003906-1.7695-0.34375-2.3984-0.97266-0.62891-0.63672-0.98438-1.5078-0.95703-2.4023l0.49219-21.668c0.13672-0.36328 0.22266-0.75391 0.23828-1.1641l4.5664-174.06zm5.5312-69.215c1.0391-0.36719 2.4805-0.71094 3.4766-0.25781 2.0508 0.92578 4.6055 2.7266 3.1523 7.6289-0.42969 1.4414-1.2734 2.2461-2.4492 3.3672-1.5586 1.4844-3.6875 3.5156-4.2109 7.2031-0.29297 2.0703 0.20312 4.0742 0.72656 6.1953 0.66406 2.6992 1.4219 5.7617 0.91016 9.9688-0.47266 3.8828-1.9492 6.8477-3.3789 9.7148-1.2695 2.5391-2.4648 4.9336-2.9062 7.7422-0.58594 3.7344-0.80078 9.0898-0.88281 12.203l-12.102-0.015625c-0.39844-1.8633-1.1328-4.6016-2.3125-6.3477-0.95312-1.4102-2.0156-2.7422-3.2188-4.0156-0.53906-0.53906-0.70703-1.3438-0.41797-2.0742 3.7266-9.6016 14.113-35.973 18.027-45.902 0.98828-2.5312 3.0312-4.5039 5.5859-5.4102zm-74.508 345.21 1.1133-2.3438c3.4805-7.418 8.2578-17.578 9.5664-25.227 2.8906-16.852-1.9414-29.5-5.4727-38.734-1.2695-3.3242-2.3672-6.1953-2.9727-8.793-2.1055-9.0039-0.99219-17.793 2.9023-22.945 3.5781-4.7305 7.3789-6.793 12.727-6.8828h0.22266c3.6992 0 7.6562 1.5781 11.164 2.9688 1.2031 0.48047 2.3359 0.92578 3.375 1.2852 3.7617 1.3008 9.1797 2.7852 14.207 2.7422l-0.11719 5.0586c-2.418 1.4219-6.9766 4.3281-10.121 7.707-4.457 4.8008-7.6289 8.7305-10.922 19.227-4.5898 14.605-3.9609 22.398-3.3008 30.652 0.089843 1.1133 0.17969 2.2383 0.25781 3.3789 0.36328 5.3672 1.9609 17.672 2.6289 22.715 0.23828 1.7891 1.75 3.1016 3.543 3.1016h0.13281l10.316-0.38672v39.816c0 1.8242 0.71094 3.543 2.0039 4.8398 1.293 1.2891 3.0078 2 4.8359 2h34.309c1.8242 0 3.543-0.71094 4.8359-2.0039 1.2891-1.293 2-3.0117 2-4.8359l0.003906-40.512 9.7578-0.058594c0 0.082032-0.011719 0.16016-0.011719 0.24609v69.324c0 6.3477 5.1641 11.512 11.512 11.512 6.3477 0 11.512-5.1641 11.512-11.512v-69.324c0-0.074219-0.011719-0.14453-0.011719-0.21484 1.8906-0.10547 3.793-0.19141 5.3789-0.23047 0.24219 0.48047 0.48047 0.95703 0.71875 1.4375 5.1484 10.23 10.473 20.812 13.121 34.918 2.6055 13.895-0.48828 30.711-7.8828 42.84-7.2539 11.898-27.074 19.938-42.043 20.832-18.035 1.0742-50.129 1.4414-64.645-1.9648-7.0938-1.6641-30.617-8.8828-35.492-31.953-5.3047-25.109 6.4258-49.5 10.848-58.68z"/>
  <path d="m411.72 458.98h-25.539c-3.7617 0-6.8281 3.0625-6.8281 6.8281 0 3.7617 3.0625 6.8281 6.8281 6.8281h25.539c3.7617 0 6.8281-3.0625 6.8281-6.8281-0.007812-3.7656-3.0664-6.8281-6.8281-6.8281zm0 9.1094h-25.539c-1.2578 0-2.2812-1.0234-2.2812-2.2812s1.0234-2.2812 2.2812-2.2812h25.539c1.2578 0 2.2812 1.0234 2.2812 2.2812s-1.0234 2.2812-2.2812 2.2812z"/>
  <path d="m444.54 589.05c3.3398 0 6.0547-2.7148 6.0547-6.0547s-2.7148-6.0625-6.0547-6.0625c-3.3398 0-6.0625 2.7188-6.0625 6.0625 0.007813 3.3359 2.7227 6.0547 6.0625 6.0547zm0-8.8477c1.5352 0 2.7852 1.25 2.7852 2.7852 0 1.5352-1.25 2.7852-2.7852 2.7852-1.5352 0-2.7852-1.25-2.7852-2.7852 0-1.5312 1.25-2.7852 2.7852-2.7852z"/>
  <path d="m444.54 562.38c3.3398 0 6.0547-2.7148 6.0547-6.0547 0-3.3398-2.7148-6.0547-6.0547-6.0547-3.3398 0-6.0625 2.7148-6.0625 6.0547 0.007813 3.3398 2.7227 6.0547 6.0625 6.0547zm0-8.8398c1.5352 0 2.7852 1.25 2.7852 2.7852 0 1.5352-1.25 2.7852-2.7852 2.7852-1.5352 0-2.7852-1.25-2.7852-2.7852 0-1.5352 1.25-2.7852 2.7852-2.7852z"/>
  <path d="m442.15 539.35h0.75391v1.9336c0 0.90234 0.73047 1.6367 1.6367 1.6367 0.90234 0 1.6367-0.73047 1.6367-1.6367v-1.9336h0.75391c0.90234 0 1.6367-0.73047 1.6367-1.6367v-1.668c0-0.90234-0.73047-1.6367-1.6367-1.6367h-0.75391l0.003906-10.824c0-0.90234-0.73047-1.6367-1.6367-1.6367-0.90234 0-1.6367 0.73047-1.6367 1.6367v10.82h-0.75391c-0.90234 0-1.6367 0.73047-1.6367 1.6367v1.668c-0.003906 0.91016 0.73047 1.6406 1.6328 1.6406z"/>
  <path d="m412.62 527.51-21.977-8.168c-1.6758-0.62109-3.543-0.55078-5.168 0.19141-1.6172 0.74219-2.8984 2.1211-3.5117 3.7852-0.62109 1.6641-0.55469 3.5469 0.1875 5.168 0.75 1.6367 2.0977 2.8867 3.7891 3.5156l21.977 8.168c0.75391 0.28125 1.5469 0.42188 2.3516 0.42188 0.97656 0 1.9258-0.20703 2.8125-0.61328 1.6367-0.75391 2.8867-2.1016 3.5117-3.7852 0.625-1.668 0.55469-3.5508-0.1875-5.168-0.75-1.6367-2.0938-2.8867-3.7852-3.5156zm-0.10547 7.1719c-0.21484 0.58984-0.67578 1.0781-1.2461 1.3438-0.3125 0.14453-0.64453 0.21484-0.99219 0.21484-0.28906 0-0.57031-0.050782-0.83984-0.15234l-21.973-8.168c-0.59766-0.22656-1.0781-0.67188-1.3398-1.2461-0.26172-0.57422-0.28906-1.2461-0.066406-1.832 0.21484-0.58984 0.67578-1.0781 1.25-1.3398 0.3125-0.14453 0.64844-0.21484 0.99219-0.21484 0.28906 0 0.57031 0.050782 0.83594 0.15234l21.973 8.168c0.59766 0.22656 1.0781 0.67188 1.3438 1.25 0.25781 0.5625 0.28125 1.2266 0.0625 1.8242z"/>
 </g>
</svg>