<?xml version="1.0" encoding="UTF-8"?>
<!-- Uploaded to: SVG Find, www.svgfind.com, Generator: SVG Find Mixer Tools -->
<svg fill="#000000" width="800px" height="800px" version="1.1" viewBox="144 144 512 512" xmlns="http://www.w3.org/2000/svg">
 <g fill-rule="evenodd">
  <path d="m424.92 434.68c-1.9766-5.3594-5.1328-10.281-9.1914-14.316l-6.3398-170.78c0.16016-1.3242 0.69922-4.5508 1.6641-6.9922 1.2188-3.082 5.0469-6.1875 6.4141-7.1172 1.2188-0.82031 1.8203-2.293 1.5312-3.7344-0.03125-0.15625-3.1641-15.824-3.8398-22.504-0.66406-6.5703-0.13281-19.816 0.15234-26.93 0.27344-6.8125 0.31641-7.8594-2.2461-8.8008-1.1875-0.43359-2.4922-0.21484-3.4727 0.52734-1.2812 0.77734-8.4883 4.4883-10.652 5.4961-1.9688 0.29688-2.8281 2.4688-3.5781 4.4727l-3.0234-1.1523c-1.4062-0.53516-2.9844 0.16797-3.5234 1.5781-0.53516 1.4102 0.16797 2.9844 1.5781 3.5234l3.082 1.1758c-0.12109 0.32812-0.23047 0.64062-0.35937 0.98438-0.28906 0.78516-0.58984 1.6289-0.90234 2.4883l-2.9023-1.1016c-1.4062-0.53516-2.9844 0.16797-3.5234 1.5781-0.53906 1.4102 0.17188 2.9883 1.5781 3.5234l2.9922 1.1367c-0.40625 1.1328-0.82031 2.293-1.25 3.4766l-2.8203-1.0781c-1.4062-0.53516-2.9844 0.16797-3.5234 1.5781-0.53516 1.4102 0.16797 2.9844 1.5781 3.5234l2.9258 1.1133c-0.21484 0.60938-0.4375 1.2188-0.65625 1.8281-0.19531 0.55078-0.39453 1.0977-0.58984 1.6484l-2.7656-1.0547c-1.3945-0.52734-2.9844 0.17188-3.5234 1.582-0.53516 1.4062 0.17188 2.9844 1.582 3.5234l2.8711 1.0938c-0.42188 1.1836-0.83594 2.3438-1.2383 3.4766l-2.7109-1.0312c-1.4062-0.53906-2.9844 0.16797-3.5234 1.5781-0.53516 1.4102 0.16797 2.9844 1.5781 3.5234l2.8203 1.0781c-0.4375 1.2383-0.85156 2.4023-1.2344 3.4805l-2.6641-1.0117c-1.3945-0.53516-2.9844 0.17188-3.5156 1.5781-0.53516 1.4062 0.17188 2.9844 1.5781 3.5156l2.7812 1.0586c-0.50781 1.4375-0.80078 2.2578-0.80078 2.2578-0.53906 1.5156-0.011718 3.2109 1.2891 4.1562 0.03125 0.023438 3.2578 2.3945 5.2539 5.3789 0.71484 1.0742 1.2305 3.9102 1.3672 5.5703-0.25781 55.723-0.75 159.01-0.83984 170.69-4.0977 4.0508-7.2969 9.0078-9.2891 14.414l-66.863 181.59c-1.3594 3.6992 0.24609 7.8555 3.75 9.6719 0.98828 0.51953 2.0625 0.76563 3.1289 0.76563 1.8789 0 3.7344-0.77734 5.0586-2.2383 5.3711-5.9297 32.719-35.988 43.637-45.379 10.617-9.1328 29.988-24.227 36.25-29.086 6.2891 4.8711 25.641 19.957 36.25 29.086 10.609 9.125 36.082 37.035 43.641 45.379 2.0742 2.293 5.4453 2.8906 8.1875 1.4727 3.4961-1.8125 5.1094-5.9688 3.75-9.6719zm-15.688 3.4062c0.011719 0.45312-0.16016 0.89844-0.47266 1.2227-0.3125 0.32812-0.75391 0.51953-1.2109 0.51953l-14.418 0.13281h-0.015624c-0.45313 0-0.88281-0.17578-1.2031-0.49219-0.32812-0.32812-0.5-0.76172-0.5-1.2188l0.14063-15.637h-0.14453c0.023438-0.13672 0.054688-0.27344 0.066406-0.41406 0.15234-0.80078 0.15625-1.7148 0.16797-2.6719l0.14062-24.953c0.085938-16.125 0.1875-37.625 0.29297-59.121l0.40234-85.48 9.6445-0.23828 6.3945 172.21c0 0.10547 0.003907 0.21094 0.011719 0.31641l0.015625 0.46484c0.015625 0.44141 0.125 0.85547 0.28906 1.2461zm-24.23-203.59c6.3672-17.973 15.195-42.715 17.406-48.531 1.125-0.52734 2.6797-1.3281 4.9609-2.5 0.21484-0.10938 0.42969-0.21484 0.62891-0.32422-0.31641 7.8828-0.76172 20.082-0.082031 26.832 0.55859 5.5273 2.5938 16.289 3.5078 20.965-2.1953 1.8047-5.5859 5.0547-7.1406 8.9922-0.55859 1.4219-0.98828 2.9414-1.3086 4.3281l-11.254 0.27734c-0.38672-1.582-0.96094-3.2539-1.832-4.5664-1.5039-2.2539-3.4297-4.1797-4.8867-5.4727zm99.961 384.76c-7.9922-8.8164-33.191-36.391-43.973-45.664-10.965-9.4297-31.023-25.051-36.926-29.617-2.3281-1.7891-5.8086-1.7969-8.1562 0.003906-5.8906 4.5586-25.953 20.176-36.914 29.613-10.816 9.3047-35.992 36.863-43.973 45.664-0.070313-0.14062-0.085938-0.30078-0.03125-0.45703l66.902-181.6c1.0117-2.75 2.418-5.3516 4.1367-7.7227l-0.074219 8.7305c-0.019531 1.9102 0.74609 3.7773 2.0977 5.1289 1.3281 1.3359 3.1758 2.0977 5.0625 2.0977h0.058593l14.418-0.13281c1.9102-0.019531 3.7617-0.81641 5.0898-2.1914s2.0547-3.2578 2-5.168l-0.22266-7.6875c1.4766 2.1719 2.7188 4.4922 3.6289 6.957l66.902 181.6c0.058593 0.14062 0.042968 0.3125-0.027344 0.44922z"/>
  <path d="m443.81 524c-3.9102 0-7.0898 3.1797-7.0898 7.0898 0 3.9102 3.1797 7.0898 7.0898 7.0898 3.9062 0 7.082-3.1797 7.082-7.0898 0.003906-3.9102-3.1758-7.0898-7.082-7.0898zm0 10.902c-2.1016 0-3.8125-1.707-3.8125-3.8125 0-2.1016 1.707-3.8125 3.8125-3.8125 2.1016 0 3.8086 1.707 3.8086 3.8125 0 2.1055-1.707 3.8125-3.8086 3.8125z"/>
  <path d="m438.38 503.11c0-3.9062-3.1797-7.082-7.082-7.082-3.9102 0-7.0898 3.1797-7.0898 7.082 0 3.9102 3.1797 7.0898 7.0898 7.0898 3.9023-0.003907 7.082-3.1797 7.082-7.0898zm-7.0859 3.8125c-2.1016 0-3.8125-1.707-3.8125-3.8125 0-2.1016 1.707-3.8086 3.8125-3.8086 2.1016 0 3.8086 1.707 3.8086 3.8086s-1.707 3.8125-3.8086 3.8125z"/>
  <path d="m440.39 516.82c0 3.8555-5.6055 3.8555-5.6055 0 0-3.8555 5.6055-3.8555 5.6055 0"/>
  <path d="m416.21 502.89-1.2812-0.82812c-0.96094-0.625-2.082-0.95312-3.2227-0.95312h-23.41c-1.1445 0-2.2617 0.32812-3.375 1.0469l-1.1328 0.73047c-1.6914 1.0977-2.7109 2.957-2.7148 4.9766l-0.023438 9.2266c-0.003906 2.3867 1.4102 4.5391 3.6055 5.4805l0.39844 0.17188c0.70703 0.30078 1.168 0.98828 1.1797 1.8789 0.050781 3.2305 2.7148 5.8555 5.9414 5.8477h0.015625l7.8086-0.011719 7.8086 0.019531h0.015625c3.2305 0 5.8945-2.6211 5.9453-5.9766 0.011719-0.76562 0.47266-1.457 1.1758-1.7539l0.39844-0.17188c2.2031-0.9375 3.6172-3.0898 3.6055-5.4805l-0.023438-9.2266c-0.003906-2.0195-1.0156-3.8789-2.7148-4.9766zm-8.3867 23.59h-0.003907l-7.8164-0.023437-0.003906 2-0.007812-2-7.8125 0.019531h-0.003907c-1.0547 0-1.9258-0.85547-1.9453-2.0391-0.011719-0.63672-0.13281-1.25-0.33203-1.832l20.172 0.11719c-0.1875 0.57812-0.29687 1.1992-0.30859 1.8438-0.015625 1.0547-0.88672 1.9141-1.9375 1.9141zm5.793-7.5195-0.24219 0.10547c-0.66406 0.28125-1.2461 0.69141-1.75 1.1758-0.097656-0.023437-0.19141-0.058593-0.29688-0.058593l-22.645-0.125h-0.003906c-0.15234 0-0.29688 0.035156-0.43359 0.085937-0.50391-0.45312-1.0898-0.84766-1.7539-1.1289l-0.26563-0.11719c-0.71484-0.30859-1.1797-1.0078-1.1797-1.7891l0.023437-9.2266c0-0.66016 0.33203-1.2695 0.88672-1.6289l1.2812-0.83203c0.31641-0.20703 0.67969-0.3125 1.0547-0.3125h23.41c0.37109 0 0.74219 0.10938 1.0469 0.30859l1.2891 0.83203c0.55469 0.35938 0.88672 0.96875 0.89063 1.6289l0.023437 9.2305c0 0.77344-0.46484 1.4805-1.3359 1.8516z"/>
  <path d="m389.31 465.85h21.375c1.2344 0 2.4453-0.5 3.3164-1.375 0.88672-0.88672 1.375-2.0625 1.375-3.3164v-8.2227c0-1.2344-0.5-2.4492-1.375-3.3203-0.87109-0.87109-2.082-1.375-3.3164-1.375h-21.375c-1.25 0-2.4297 0.48828-3.3164 1.375-0.87109 0.87109-1.375 2.082-1.375 3.3203v8.2227c0 1.2539 0.48828 2.4336 1.375 3.3203 0.88672 0.88672 2.0664 1.3711 3.3164 1.3711zm-1.0508-12.914c0-0.27734 0.10938-0.55078 0.30859-0.74609 0.20312-0.19531 0.46484-0.30859 0.74609-0.30859h21.375c0.27734 0 0.55078 0.10938 0.74609 0.30859 0.19531 0.19531 0.30859 0.46875 0.30859 0.74609v8.2227c0 0.28125-0.10938 0.54297-0.30859 0.74609-0.19531 0.19531-0.46875 0.30859-0.74609 0.30859h-21.375c-0.28125 0-0.54297-0.10938-0.74609-0.30859-0.19531-0.19531-0.30859-0.46484-0.30859-0.74609z"/>
  <path d="m389.31 497.38h21.375c1.2344 0 2.4453-0.5 3.3164-1.375 0.87109-0.87109 1.375-2.082 1.375-3.3164v-8.2227c0-1.2344-0.5-2.4453-1.375-3.3164-0.87109-0.87109-2.082-1.375-3.3164-1.375h-21.375c-1.25 0-2.4297 0.48828-3.3164 1.375-0.87109 0.87109-1.375 2.082-1.375 3.3164v8.2227c0 1.2344 0.5 2.4453 1.375 3.3203 0.88672 0.88281 2.0664 1.3711 3.3164 1.3711zm-1.0508-12.918c0-0.27734 0.10938-0.55078 0.30859-0.74219 0.20312-0.19531 0.46484-0.30859 0.74609-0.30859h21.375c0.27734 0 0.55078 0.10938 0.74609 0.30859 0.19531 0.19531 0.30859 0.46875 0.30859 0.74609v8.2227c0 0.27734-0.10938 0.55078-0.30859 0.74609-0.19531 0.19531-0.46875 0.30859-0.74609 0.30859h-21.375c-0.28125 0-0.54297-0.10938-0.74609-0.30859-0.19531-0.19531-0.30859-0.46875-0.30859-0.74609z"/>
 </g>
</svg>