<?xml version="1.0" encoding="UTF-8"?>
<!-- Uploaded to: SVG Find, www.svgfind.com, Generator: SVG Find Mixer Tools -->
<svg fill="#000000" width="800px" height="800px" version="1.1" viewBox="144 144 512 512" xmlns="http://www.w3.org/2000/svg">
 <g fill-rule="evenodd">
  <path d="m456.36 526.83c-2.6406-5.2188-5.1328-10.148-5.8906-12.574-3.1641-10.105-2.1875-17.527 0.5625-26.934 1.1172-3.8125 3.6172-7.5625 6.0352-11.195 3.2305-4.8477 6.2773-9.4258 5.9062-14.152-0.21094-2.6445-1.5117-4.8125-3.6562-6.1055-4.0703-2.4531-10.621-1.582-20.605 2.7344-2.2383 0.96875-4.2891 2.293-6.4648 3.6914-4.1719 2.6836-8.4805 5.4648-14.117 5.4648h-0.19531c-3.168-0.035156-3.8594-3.1289-4-4.0898-0.046875-0.35156-0.14062-0.68359-0.27734-0.99609l-7.9844-191.94c0.71484-2.3242 2.5391-7.5664 4.2461-9.8438 2.3516-3.1484 7.7695-4.4336 9.6484-4.6602 1.8984-0.22266 3.3047-1.8789 3.2109-3.7891-0.035156-0.76172-0.9375-18.707-2.418-25.746-1.4727-6.9766-3.9258-14.605-5.332-18.75 5.7266-3.3203 12.551-10.273 10.262-20.637-0.67969-3.0938-2.7539-12.5-14.508-13.926-4.4375-0.54297-8.8672 1.1953-12.844 5.0273-2.5898 2.5156-4.4531 5.6875-5.3906 9.1836l-0.44922 1.6719-4.5938-1.5625c-1.4258-0.48438-2.9727 0.27734-3.457 1.7031s0.27734 2.9727 1.7031 3.457l4.9375 1.6836-1.6719 6.2539-4.4727-1.5273c-1.4219-0.48438-2.9727 0.27734-3.457 1.7031-0.48438 1.4258 0.27734 2.9727 1.7031 3.457l4.8164 1.6406-1.6719 6.2539-4.3594-1.4805c-1.4258-0.48438-2.9727 0.27734-3.457 1.7031-0.48438 1.4258 0.27734 2.9727 1.7031 3.457l4.6992 1.6016-1.6719 6.2539-4.2383-1.4414c-1.4258-0.48828-2.9727 0.27734-3.457 1.7031s0.27734 2.9727 1.7031 3.457l4.5781 1.5625-1.6719 6.2539-4.1172-1.4023c-1.4258-0.48438-2.9727 0.27734-3.457 1.7031s0.27734 2.9727 1.7031 3.457l4.457 1.5234-1.6719 6.2539-3.9961-1.3594c-1.4258-0.48438-2.9727 0.27734-3.457 1.7031-0.48438 1.4258 0.27734 2.9727 1.7031 3.457l4.3438 1.4766-1.6562 6.1836c-0.36328 1.3555 0.089844 2.8008 1.1602 3.7148 0.023437 0.023437 2.6992 2.3086 4.9492 5.4141 0.79688 1.0977 1.2344 3.8359 1.2812 5.2305l-0.050781 186.84c0 0.097656 0.003906 0.1875 0.011719 0.27734-0.64062 5.3047-1.4844 6.1445-4.4531 6.6562-1.6172 0.28125-3.1328-0.050781-5.2344-2.5625-2.0664-2.4648-4.8398-6.4023-8.2617-11.703-3.2109-4.9688-7.7148-8.2812-13.758-10.133-6.0703-1.8555-14.582-0.4375-17.574 4.625-2.207 3.7383 0.72656 8.5742 4.7852 15.266 2.1211 3.4961 4.5273 7.4609 5.5859 10.535 10.262 29.668 5.7344 40.023 2.7422 46.875-0.33594 0.76562-0.65625 1.4961-0.9375 2.2031-0.47266 1.1758-1.0898 2.6133-1.793 4.2773-4.1055 9.6445-10.984 25.789-12.207 39.969-0.95312 10.973 1.6758 23.207 7.0273 32.723 9.2109 16.379 20.02 21.355 30.336 24.293 9.1172 2.5938 14.105 3.8125 26.586 3.8125 5.2734 0 11.895-0.21484 20.727-0.64063 29.332-1.4102 45.914-22.332 49.828-30.277 7.8984-16.035 6.082-31.816 4.9336-37.855-1.6953-8.8828-7.9297-21.207-12.938-31.109zm-45.328-40.023c0.34375 0.054687 8.332 1.3047 15.738-4.1562 11.707-8.6289 15.789-10.086 17.125-10.258-0.33594 0.78516-1.082 2.0547-1.7148 3.1289-1.9453 3.3086-4.875 8.3086-6.332 14.621-1.3672 5.9258-1.543 13.211-0.47266 19.984 0.85547 5.4453 3.6992 15.035 6.2031 20.934 0.57422 1.3516 1.5469 3.3711 2.6758 5.707 2.7617 5.7227 6.5391 13.566 8.3516 19.578 2.4219 8.0273 2.1562 14.941-0.92188 23.867-1.0195 2.9414-6.7422 10.141-10.848 10.141-0.074219 0-0.15234-0.003906-0.22656-0.003906-0.98438-0.066406-2.1758-0.64453-3.5312-4.4141-1.582-4.3867-2.8125-7.9922-4.793-14.43l-0.76953-2.5273c-2.3477-7.7383-3.5977-11.523-4.9336-12.773-3.3438-3.1445-8.6758-2.7617-8.8008-2.7461-0.27344 0.003907-27.137 0.53516-31.547 0.4375-0.4375-0.015625-1.1797-0.003906-2.1055 0.003907-2.9219 0.03125-8.9922 0.089843-10.988-0.59766-6.0117-2.0625-5.9492-8.6094-5.3242-15.715 0.12109-1.3594 0.22266-2.5391 0.20703-3.5-0.023438-1.7578 0.37109-5.0781 0.79687-8.5938 0.71484-5.8906 1.5156-12.566 0.95703-16.414-0.55859-3.8281-1.707-8.0508-2.8164-12.137-2.0391-7.5078-4.3516-16.012-1.2383-17.887 2.207-1.3242 4.4883-0.35156 7.7188 1.2812 0.5 0.25 0.99219 0.50391 1.4727 0.73047 2.9609 1.4023 6.0859 2.5352 7.4922 3.0273 0.37109 1.2344 1.0039 2.3867 1.918 3.3164 1.4844 1.5117 3.543 2.3672 5.6523 2.3672h0.14453l15.391-0.26562c1.8242-0.03125 3.5977-0.80469 4.8672-2.125 0.1875-0.19531 0.33203-0.41797 0.5-0.63672 0.046875 0.007812 0.09375 0.042969 0.15234 0.054688zm-4.5781-22.523c0 0.019531 0.011719 0.035156 0.011719 0.054688l0.38281 18.223c0.011719 0.38672-0.13672 0.76562-0.40234 1.043-0.27344 0.28125-0.64453 0.44141-1.0312 0.45313l-15.395 0.26562c-0.64062 0.019532-1.3398-0.25781-1.8203-0.74219-0.48047-0.48828-0.74609-1.1602-0.72656-1.8398l0.58984-19.406-0.10547-0.003906c0.089844-0.57422 0.17188-1.1523 0.23828-1.7227 0.03125-0.24609 0.03125-0.48438 0.015626-0.71875 0.003906-0.097657 0.011718-0.19141 0.011718-0.28906l0.03125-184.55 10.324-0.12109zm-6.8867-274.8c0.59766-2.2266 1.7891-4.2539 3.4258-5.8438 2.3672-2.2812 4.6953-3.3086 6.9062-3.0391 5.5117 0.67188 7.3008 3.793 8.2891 8.2773 2.0742 9.3906-8.5234 13.66-8.9609 13.828-1.8555 0.71094-2.7969 2.7773-2.1172 4.6406 0.039063 0.10938 4.125 11.34 6.1328 20.852 1.0117 4.8281 1.7734 16.016 2.1016 21.488-3.3047 0.87109-8.2031 2.793-11.246 6.8555-2.9844 3.9844-5.3164 11.84-5.5703 12.727-0.019532 0.070312-0.011719 0.14453-0.023438 0.21484l-10.559 0.125c-0.32422-1.9688-0.97266-4.457-2.3477-6.3594-1.5352-2.1211-3.2031-3.9102-4.4141-5.1055zm58.281 403.11c-0.12109 0.24609-13.035 24.758-43.656 26.227-28.66 1.375-32.66 0.60547-44.977-2.9023-8.2188-2.3359-17.672-6.0742-25.992-20.863-4.6641-8.293-6.9531-18.957-6.125-28.531 1.1289-13.023 7.7188-28.5 11.652-37.746 0.73047-1.7148 1.3672-3.2031 1.8477-4.4141 0.25781-0.64062 0.55078-1.3047 0.85547-2.0039 3.4453-7.8906 8.6602-19.809-2.5273-52.16-1.3164-3.8047-3.8203-7.9336-6.2422-11.93-1.5977-2.6367-3.9414-6.4922-4.4023-8.1914 1.3438-1.1602 5.4375-2.0234 8.8516-0.98437 4.457 1.3672 7.4766 3.5625 9.7773 7.125 3.6328 5.6289 6.5078 9.6875 8.793 12.418 3.4609 4.1406 7.5156 5.8555 12.035 5.0664 1.8477-0.31641 3.3398-0.86719 4.5742-1.582l-0.25 8.375c-1.5469-0.57422-3.707-1.4141-5.7578-2.3828-0.45313-0.21484-0.92188-0.44922-1.3906-0.69141-3.0977-1.5703-6.957-3.5234-10.879-1.1641-5.2344 3.1445-2.8047 12.082-0.23047 21.543 1.082 3.9883 2.207 8.1172 2.7344 11.75 0.5 3.4141-0.3125 10.141-0.96875 15.547-0.45703 3.7891-0.85156 7.0586-0.82031 9.043 0.011719 0.79688-0.085938 1.8945-0.19531 3.1641-0.52344 5.9961-1.4062 16.027 7.5234 19.094 2.3281 0.79688 7.2383 0.82812 12.078 0.77734 0.87109-0.011719 1.5703-0.015625 1.9883-0.003907 4.5078 0.10938 30.59-0.41406 31.789-0.44141 0.039062-0.003906 4.125-0.27734 6.3984 1.8594 0.89062 0.93359 2.793 7.1953 4.0508 11.34l0.77734 2.543c2 6.5 3.2461 10.137 4.8398 14.574 1.0547 2.9258 2.7344 6.3242 6.3867 6.5664 0.14453 0.011719 0.29297 0.015625 0.44141 0.015625 6.3516 0 12.816-9.0781 13.945-12.344 3.2812-9.5078 3.5703-17.25 0.96094-25.879-1.8906-6.2578-5.7344-14.234-8.5391-20.051-1.1094-2.3008-2.0664-4.2891-2.6094-5.5664-2.418-5.6992-5.1523-14.934-5.9805-20.168-1.0039-6.375-0.84766-13.203 0.42969-18.742 1.3438-5.8281 4.0156-10.379 5.9648-13.703 1.9531-3.332 3.1406-5.3438 1.7852-6.9844-1.9609-2.3711-6.4492-1.6055-21.949 9.8242-5.168 3.8125-10.793 3.7695-12.637 3.6328 0.058593-0.39844 0.10156-0.80469 0.089843-1.2109l-0.1875-9.0391c1.5234 0.96094 3.4102 1.5977 5.75 1.6211h0.28125c7.7695 0 13.461-3.668 18.047-6.625 1.9141-1.2344 3.7227-2.3984 5.4102-3.1289 10.887-4.707 13.695-3.3516 13.977-3.1797 0.054688 0.035156 0.13672 0.082031 0.16016 0.45312 0.17578 2.2227-2.3086 5.9492-4.707 9.5508-2.5938 3.8945-5.5312 8.3086-6.957 13.18-3.0664 10.469-4.2266 19.336-0.52734 31.145 0.9375 2.9961 3.3203 7.7188 6.3438 13.688 4.8047 9.4961 10.781 21.316 12.277 29.191 1.0117 5.332 2.6172 19.227-4.3086 33.301z"/>
  <path d="m376.96 507.12c-1.0586 1.0547-1.6641 2.5195-1.6641 4.0117v4.9609c0 1.4922 0.60547 2.9531 1.6641 4.0117 1.0586 1.0586 2.5195 1.6641 4.0117 1.6641h32.395c1.5117 0 2.9375-0.58984 4.0117-1.6641 1.0664-1.0742 1.6641-2.4922 1.6641-4.0117v-4.9609c0-1.4961-0.60547-2.957-1.6641-4.0117-1.0742-1.0742-2.5-1.6641-4.0117-1.6641h-32.395c-1.5 0.003906-2.9609 0.60547-4.0117 1.6641zm37.336 3.0859c0.24219 0.24219 0.38281 0.57812 0.38281 0.92578v4.9609c0 0.34766-0.14062 0.68359-0.38281 0.92578-0.24609 0.24609-0.58594 0.38672-0.93359 0.38672h-32.395c-0.34375 0-0.68359-0.14062-0.92578-0.38281-0.24609-0.24609-0.38281-0.58594-0.38281-0.92578v-4.9609c0-0.34766 0.13672-0.68359 0.38672-0.93359 0.24609-0.24609 0.57812-0.38281 0.92578-0.38281h32.395c0.34766-0.003906 0.67969 0.13281 0.92969 0.38672z"/>
  <path d="m416.27 593.58v-3.0664c0-2.0977-1.707-3.8047-3.8047-3.8047h-25.449c-2.0977 0-3.8047 1.707-3.8047 3.8047v3.1289c-0.92578 0.14453-2.0547 0.51562-2.9375 1.3906-0.69531 0.69531-1.4805 1.9805-1.2578 4.1211 0.23047 2.2266 1.9766 8.6953 4.3359 12.621 1.5 2.4883 4.9727 2.5625 5.3672 2.5625l11.285 0.046874h0.007812l11.266-0.050781h0.003906c0.40234 0 3.875-0.074219 5.375-2.5625 2.3633-3.9258 4.1016-10.395 4.3359-12.621 0.22266-2.1406-0.55859-3.4258-1.2578-4.1211-1.0547-1.0508-2.4648-1.3711-3.4648-1.4492zm-29.785-3.0703c0-0.29297 0.23828-0.52734 0.53516-0.52734h25.449c0.29297 0 0.53516 0.23828 0.53516 0.52734v3.043h-26.516zm27.371 19.574c-0.4375 0.73047-1.9297 0.97656-2.5859 0.98438l-11.266 0.050782-11.266-0.050782c-0.65625-0.003906-2.1445-0.25-2.5859-0.98438-2-3.3203-3.6797-9.2695-3.8828-11.273-0.070313-0.69141 0.03125-1.1797 0.3125-1.4609 0.43359-0.4375 1.2891-0.52734 1.7695-0.52734 0.097656 0 0.17578 0.003907 0.23828 0.011719 0.14062 0.015625 0.27734 0.011719 0.40234-0.003906h29.645c0.097657 0 0.1875-0.011719 0.27734-0.023437 0.16016 0.035156 0.32812 0.050781 0.50391 0.03125 0.35156-0.03125 1.4961-0.011719 2.0156 0.51562 0.27734 0.28125 0.38281 0.77734 0.3125 1.4609-0.21484 2-1.8906 7.9492-3.8906 11.27z"/>
  <path d="m385.07 567.73 29.316 0.039062c1.6055 0 2.9062-1.3008 2.9062-2.9023 0.003906-1.6055-1.293-2.9062-2.9023-2.9062l-29.309-0.039063c-1.6055 0-2.9062 1.3008-2.9062 2.9023-0.007813 1.6016 1.293 2.9062 2.8945 2.9062z"/>
  <path d="m438.19 563.01c0 3.2812 2.6094 5.9531 5.8086 5.9531 3.2031 0 5.8125-2.6719 5.8125-5.9531s-2.6094-5.9492-5.8125-5.9492c-3.1992 0-5.8086 2.668-5.8086 5.9492zm5.8125-2.6797c1.4023 0 2.543 1.2031 2.543 2.6797 0 1.4805-1.1367 2.6797-2.543 2.6797s-2.5391-1.2031-2.5391-2.6797c0-1.4766 1.1406-2.6797 2.5391-2.6797z"/>
  <path d="m437.56 554.66c3.2031 0 5.8125-2.6719 5.8125-5.9531s-2.6094-5.9531-5.8125-5.9531-5.8086 2.6719-5.8086 5.9531c-0.003906 3.2812 2.6055 5.9531 5.8086 5.9531zm0-8.6367c1.4023 0 2.543 1.2031 2.543 2.6797 0 1.4766-1.1367 2.6797-2.543 2.6797-1.4023 0-2.5391-1.2031-2.5391-2.6797 0-1.4766 1.1367-2.6797 2.5391-2.6797z"/>
  <path d="m443.48 572.6c-2.3086 0-4.1797 1.918-4.1797 4.2812 0 2.3633 1.8789 4.2812 4.1797 4.2812s4.1797-1.918 4.1797-4.2812c0.003906-2.3555-1.875-4.2812-4.1797-4.2812zm0 6.2031c-1.0039 0-1.8203-0.86328-1.8203-1.918 0-1.0586 0.81641-1.918 1.8203-1.918 1.0039 0 1.8203 0.86328 1.8203 1.918 0 1.0625-0.81641 1.918-1.8203 1.918z"/>
 </g>
</svg>