<?xml version="1.0" encoding="UTF-8"?>
<!-- Uploaded to: SVG Find, www.svgfind.com, Generator: SVG Find Mixer Tools -->
<svg fill="#000000" width="800px" height="800px" version="1.1" viewBox="144 144 512 512" xmlns="http://www.w3.org/2000/svg">
 <g fill-rule="evenodd">
  <path d="m478.8 566.62c-0.57031-12.445-7.5352-30.578-11.145-38.426-2.6641-5.8047-9.2617-22.633-9.7148-26.969-0.80078-7.7695 2.4297-15.234 5.2695-21.816 1.4961-3.4609 2.9102-6.7305 3.6406-9.8047 3.168-13.34 1.8477-20.59 0.34375-25.418-3.1602-10.141-9.1914-13.754-13.777-13.754-0.76953 0-1.5352 0.097656-2.2773 0.28906-6.0625 1.582-7.0742 6.5547-8.6016 14.078l-0.16016 0.78516c-0.93359 4.5547-4.9336 13.305-13.395 13.84-4.7617 0.35156-8.457-3.6328-9.8203-5.3242l-3.6289-201.9c0-0.019531-0.046875-1.7617 0.44141-3.7148 0.23047-0.90625 1.3359-2.6211 3.75-4.6992 1.8984-1.6406 4.5391-2.4375 5.5156-2.6836 2.3789-0.55078 3.8984-2.8633 3.4648-5.2656l-6.0195-33.258c-0.125-0.69531 0.14453-1.3906 0.71484-1.8281 5.5-4.2109 6.6758-6.7422 7.0781-8.2812 0.66016-2.5156 2.6641-10.172-5.4766-16.797-2.6055-2.1172-5.9102-2.8516-9.7188-2.125-4.5391 0.875-8.4727 3.4727-11.133 7.0977l-4.8047-1.5938c-1.3398-0.4375-2.7695 0.28125-3.2148 1.6133-0.44141 1.3359 0.28125 2.7695 1.6133 3.2148l3.9766 1.3164c-0.050781 0.13672-0.11719 0.25781-0.16016 0.39453l-1.707 5.1328-4.0391-1.3398c-1.3281-0.4375-2.7695 0.28125-3.2109 1.6172-0.44141 1.3281 0.28125 2.7695 1.6172 3.2109l4.0508 1.3398c-0.58594 1.7617-1.1992 3.6133-1.8398 5.5273l-3.8828-1.2852c-1.3281-0.4375-2.7695 0.28125-3.2109 1.6172-0.44141 1.3281 0.28125 2.7695 1.6172 3.2109l3.8789 1.2852c-0.60938 1.832-1.2227 3.6836-1.8398 5.5352l-3.9883-1.3203c-1.3281-0.4375-2.7695 0.28125-3.2109 1.6172-0.44141 1.3281 0.28125 2.7695 1.6172 3.2109l3.9844 1.3203c-0.62891 1.8906-1.2383 3.7344-1.8398 5.5273l-3.8203-1.2656c-1.3359-0.4375-2.7695 0.28125-3.2109 1.6172-0.44141 1.3281 0.28125 2.7695 1.6172 3.2109l3.8125 1.2578c-0.66406 2-1.2852 3.8633-1.8398 5.5352l-3.9258-1.3008c-1.3281-0.4375-2.7695 0.28125-3.2109 1.6172-0.44141 1.3281 0.28125 2.7695 1.6172 3.2109l3.918 1.293c-0.13281 0.38672-0.26172 0.78906-0.37109 1.125-0.91797 2.7656-0.13672 5.8359 1.9961 7.8242 0.89844 0.83594 1.6641 1.6172 2.2773 2.3242 0.57422 0.66016 1.0469 3.0039 1.082 4.4883l-4.9219 179.05c-1.457 1.3711-4.6016 3.9531-8.2383 4.5664-0.37109 0.066406-0.78906 0.097656-1.2383 0.097656-1.2031 0-7.3906-0.33594-10.578-6.9531-0.96094-1.9961-1.9453-7.4883-2.5156-13.984-0.35937-4.1602-1.1992-13.91-7.582-14.609-6.0195-0.64453-9.5938 1.4844-13.375 5.043-4.2031 3.9492-6.8555 10.625-8.3594 21.016-1.5625 10.809 4.3125 31.883 6.1445 38.09 2.2383 7.5352 5.2969 17.859 5.7734 31.312 0.32422 9.0039-2.4844 14.309-5.7422 20.449-0.93359 1.7617-1.8984 3.5859-2.8281 5.5625l-0.64453 1.3711c-4.3828 9.3203-9.3516 19.879-13.09 34.844-3.1875 12.766-1.2148 27.82 5.4258 41.293 7.25 14.711 19.312 18.73 26.52 21.137 0.58984 0.19531 1.1484 0.38281 1.6758 0.5625 13.574 4.7148 42.676 5.1094 43.906 5.125h1.8242c11.004 0 33.023-1.0195 45.75-4.8281 12.203-3.6523 21.398-11.574 27.328-23.523 5.2188-10.516 4.5898-22.012 4.1719-29.625-0.035156-0.74219-0.078125-1.4453-0.10547-2.1094zm-49.348-99.949c11.16-0.70703 18.219-10.672 20.051-19.633l0.16016-0.79688c1.4258-7.0039 1.8594-8.1172 3.3203-8.4961 1.9414-0.51953 5.2891 2.1914 7.2852 8.5938 1.2305 3.9414 2.2812 9.957-0.48047 21.578-0.57812 2.4531-1.875 5.4414-3.2383 8.6016-3.043 7.0312-6.8203 15.789-5.8281 25.449 0.65625 6.332 8.7344 25.766 10.34 29.25 1.9297 4.207 4.3633 10.328 6.4023 16.715 0.023437 0.16016 0.046875 0.30078 0.074218 0.5 0.78125 5.0469 2.8516 18.449-4.5859 21.418-4.7188 1.8789-9.4102-2.3008-14.844-7.1484-3.2031-2.8633-6.5234-5.8203-10.148-7.6875-7.875-4.0625-14.5-2.5273-16.809-1.7617-0.37109-0.11719-0.76172-0.19531-1.168-0.19531h-1.543v-1.7422c0-2.1406-1.7422-3.8828-3.8828-3.8828h-29.715c-2.1406 0-3.8828 1.7422-3.8828 3.8828v0.88281c-1.2148-0.17969-6.0898-1.1484-10.484-5.4023-3.0898-2.9922-4.7773-9.9297-3.9258-16.137 0.78906-5.75 3.2227-11.594 5.1758-16.289 0.73047-1.75 1.4141-3.4023 1.918-4.8203 2.5039-7.043 4.2617-17.121 4.6602-21.711 0.75-8.5898 0.21484-17.816-0.59375-22.754-0.27344-1.6523-0.5625-3.1953-0.83203-4.6055-0.78516-4.1406-1.4609-7.7188-0.40234-8.8516 2.5391-2.7188 8.5195 1.6211 8.5781 1.668 0.17578 0.13281 0.36719 0.21484 0.57031 0.26172l-0.21094 11.77c-0.039062 2.2305 0.83594 4.4219 2.418 6.0117 1.5508 1.5586 3.6992 2.4492 5.8984 2.4492h0.097656l15.176-0.19141c4.5156-0.058593 8.1914-3.7773 8.2031-8.293l0.003907-2.9414c2.9141 2.3828 7.0898 4.6367 12.242 4.3086zm-12.824 90.016h3.3594c0.16016 0 0.29297 0.13281 0.29297 0.29297v8.9492c0 0.074218-0.03125 0.15234-0.089844 0.21094-0.054687 0.054688-0.125 0.085938-0.20312 0.085938h-35.141c-0.13672 0-0.25-0.11719-0.25-0.25v-14.66c0-0.14062 0.11719-0.25 0.25-0.25h29.715c0.14062 0 0.25 0.11719 0.25 0.25v3.5586c-0.003906 1.0039 0.80859 1.8125 1.8164 1.8125zm-8.293-301.37 3.5352 196.88h-0.097656l-0.023438 13.094c-0.003906 1.5508-1.2695 2.832-2.8203 2.8516l-15.168 0.19141h-0.035157c-0.76172 0-1.5-0.30859-2.0312-0.83984-0.54297-0.54297-0.84766-1.3008-0.83203-2.0664l0.55469-30.52c0.22656-0.46484 0.36719-0.97266 0.38281-1.4961l4.8828-178.11zm8.3398-74.629c1.6289-0.3125 2.8477-0.12109 3.7617 0.62891 4.168 3.3906 3.7852 6.4648 3.0469 9.2734-0.003906 0.015625-0.55469 1.3906-4.4727 4.3945-2.7461 2.0898-4.0703 5.4961-3.457 8.8906l5.5977 30.914c-1.8789 0.69141-4.1758 1.793-6.1562 3.5078-2.2812 1.9766-5.1875 5.0391-6.0469 8.4219-0.33203 1.3203-0.49219 2.5352-0.57812 3.5156l-11.836-0.011719c-0.29688-2.0625-0.99609-4.8398-2.6562-6.7422-0.78125-0.89062-1.7188-1.8555-2.7969-2.8555-0.058593-0.054687-0.082031-0.14453-0.054687-0.22656 2.5898-7.8008 10.852-32.672 15.629-47.031l1.8203-5.4727c1.2266-3.7109 4.375-6.4727 8.1992-7.207zm51.559 414.44c-5.0039 10.082-12.711 16.742-22.91 19.801-11.945 3.5781-33.785 4.5234-43.664 4.5234-0.61328 0-1.1953 0-1.7344-0.011719-10.027-0.12109-31.629-1.2578-41.609-4.7266-0.55078-0.19141-1.1445-0.38672-1.7617-0.59375-6.5312-2.1758-16.395-5.4648-22.305-17.457-5.8906-11.957-7.6719-25.195-4.8906-36.32 3.5664-14.277 8.375-24.496 12.617-33.512l0.64453-1.375c0.85156-1.8125 1.7773-3.5625 2.6719-5.25 3.4297-6.4727 6.9727-13.164 6.5859-24.113-0.51562-14.375-3.7227-25.207-6.0664-33.117-3.4062-11.492-6.9961-27.547-5.9258-34.984 1.2344-8.5547 3.2461-14.035 6.1406-16.762 2.8828-2.707 4.3516-3.2031 6.2227-3.2031 0.27734 0 0.5625 0.011718 0.85547 0.035156 0.36719 0.60938 1.1992 2.5508 1.6758 8.0625 0.38672 4.4922 1.3242 12.609 3.2031 16.516 3.9297 8.1562 11.422 11.062 17.125 11.062 0.85156 0 1.6719-0.066406 2.4453-0.19531 3.2344-0.54297 6.0898-1.9961 8.3281-3.5l-0.17969 10.004c-2.4453-1.5-7.9922-4.2188-11.473-0.49219-2.125 2.2812-1.4258 5.9609-0.37109 11.539 0.26172 1.3906 0.55078 2.9023 0.81641 4.5273 0.78125 4.75 1.2891 13.66 0.5625 21.98-0.40234 4.6055-2.1875 14.449-4.4922 20.945-0.48047 1.3438-1.1484 2.957-1.8633 4.6719-2.0195 4.8555-4.5391 10.906-5.3789 17.055-0.98828 7.2031 1.043 15.098 4.832 18.773 5.7734 5.5938 12.281 6.2617 12.637 6.2969v10.664c0 2.1406 1.7422 3.8828 3.8828 3.8828h35.141c1.0469 0 2.0352-0.40625 2.7695-1.1484 0.73438-0.73047 1.1523-1.7422 1.1523-2.7812l-0.003907-8.9414c0-0.42969-0.085937-0.83203-0.21094-1.2148 2.6094-0.54297 7.3398-0.84766 12.848 1.9961 3.2734 1.6875 6.4453 4.5156 9.5078 7.25 4.6406 4.1406 9.4062 8.3945 14.539 8.3945 1.1484 0 2.3125-0.21094 3.4961-0.68359 4.3438-1.7344 6.2656-5.7148 6.9961-10.102 0.23047 1.5273 0.38672 2.9766 0.44922 4.332 0.03125 0.67969 0.070313 1.4102 0.11719 2.1758 0.375 6.8516 0.94141 17.199-3.4219 25.996z"/>
  <path d="m414.73 474.92h-26.84c-4.0312 0-7.3047 3.2812-7.3047 7.3086 0 4.0312 3.2734 7.3086 7.3047 7.3086h26.84c4.0312 0 7.3047-3.2812 7.3047-7.3086 0-4.0312-3.2734-7.3086-7.3047-7.3086zm0 10.625h-26.84c-1.8281 0-3.3164-1.4922-3.3164-3.3203 0-1.8281 1.4844-3.3164 3.3164-3.3164h26.84c1.8281 0 3.3164 1.4844 3.3164 3.3164-0.003906 1.832-1.4883 3.3203-3.3164 3.3203z"/>
  <path d="m414.17 527.97-26.609-3.4766c-4.0352-0.50781-7.6797 2.3594-8.1914 6.3008-0.25 1.9336 0.26172 3.8555 1.4492 5.4023s2.9102 2.5391 4.8477 2.793l26.617 3.4766c0.31641 0.039062 0.64062 0.058594 0.95312 0.058594 3.6523 0 6.7656-2.7344 7.2383-6.3633 0.51563-3.9961-2.3125-7.6758-6.3047-8.1914zm2.3359 7.6719c-0.23047 1.7891-1.8945 3.1094-3.7148 2.8555l-26.617-3.4766c-1.8086-0.23828-3.0898-1.9062-2.8516-3.7148 0.21484-1.6406 1.6211-2.8828 3.2734-2.8828 0.14453 0 0.29297 0.011719 0.4375 0.03125l26.609 3.4766c1.8203 0.23438 3.1016 1.9023 2.8633 3.7109z"/>
  <path d="m414.73 500.21h-26.84c-4.0312 0-7.3047 3.2812-7.3047 7.3086 0 4.0312 3.2734 7.3047 7.3047 7.3047h26.84c4.0312 0 7.3047-3.2812 7.3047-7.3086 0-4.0312-3.2734-7.3047-7.3047-7.3047zm0 10.625h-26.84c-1.8281 0-3.3164-1.4844-3.3164-3.3164 0-1.8281 1.4844-3.3164 3.3164-3.3164h26.84c1.8281 0 3.3164 1.4922 3.3164 3.3203-0.003906 1.8242-1.4883 3.3125-3.3164 3.3125z"/>
  <path d="m451.26 558.85c0 3.5469 2.8516 6.4336 6.3516 6.4336s6.3516-2.8867 6.3516-6.4336c0-3.5469-2.8516-6.4336-6.3516-6.4336-3.5-0.003907-6.3516 2.8867-6.3516 6.4336zm6.3516-3.7148c2 0 3.6328 1.668 3.6328 3.7148 0 2.0469-1.6289 3.707-3.6328 3.707s-3.6328-1.6641-3.6328-3.707c0-2.0469 1.6328-3.7148 3.6328-3.7148z"/>
  <path d="m447.25 531.28c-0.27734 0.98828-0.03125 2.1562 0.76172 3.0625 1.1836 1.3516 3.1094 1.6055 4.3008 0.55859 1.1953-1.043 1.2031-2.9883 0.019532-4.3359-0.83203-0.95312-2.0312-1.3438-3.0898-1.1367l-7.7578-8.4141c-0.50781-0.55078-1.3711-0.58984-1.9258-0.074219-0.55078 0.50781-0.58984 1.3711-0.074219 1.9258z"/>
  <path d="m429.64 545.13c3.5078 0 6.3516-2.8867 6.3516-6.4336s-2.8516-6.4336-6.3516-6.4336-6.3516 2.8867-6.3516 6.4336c0 3.543 2.8516 6.4336 6.3516 6.4336zm0-10.148c2 0 3.6328 1.6641 3.6328 3.707 0 2.0469-1.6289 3.7148-3.6328 3.7148-2.0039 0-3.6328-1.668-3.6328-3.7148 0-2.043 1.6328-3.707 3.6328-3.707z"/>
  <path d="m445.48 553.19c3.5 0 6.3516-2.8867 6.3516-6.4336 0-3.5469-2.8516-6.4336-6.3516-6.4336-3.5078 0-6.3516 2.8867-6.3516 6.4336-0.003906 3.5469 2.8477 6.4336 6.3516 6.4336zm0-10.141c2 0 3.6289 1.6641 3.6289 3.707 0 2.0469-1.6289 3.707-3.6289 3.707s-3.6328-1.6641-3.6328-3.707c0.003907-2.0469 1.6289-3.707 3.6328-3.707z"/>
  <path d="m452.61 577.85c-7.3008-7.168-15.492-9.8438-19.043-6.2188-3.5586 3.6211-0.73438 11.766 6.5586 18.934 5.1055 5.0117 10.645 7.8281 14.73 7.8281 1.7539 0 3.2461-0.51953 4.3164-1.6133 1.8281-1.8633 2.0234-4.9609 0.55469-8.7266-1.3125-3.3594-3.8359-6.9805-7.1172-10.203zm4.3633 16.77c-1.9258 1.9648-8.6133-0.29688-14.68-6.2578-6.0664-5.9609-8.4492-12.605-6.5234-14.566 0.45312-0.46484 1.1758-0.69141 2.0859-0.69141 2.957 0 7.957 2.3945 12.594 6.9492 2.9727 2.918 5.25 6.1602 6.4102 9.125 0.96875 2.4922 1.0117 4.5234 0.11328 5.4414z"/>
 </g>
</svg>