<?xml version="1.0" encoding="UTF-8"?>
<!-- Uploaded to: SVG Find, www.svgfind.com, Generator: SVG Find Mixer Tools -->
<svg fill="#000000" width="800px" height="800px" version="1.1" viewBox="144 144 512 512" xmlns="http://www.w3.org/2000/svg">
 <g fill-rule="evenodd">
  <path d="m466.77 501.31c-4.4805-4.9883-7.7148-8.5898-8.207-14.602-0.50781-6.1914 1.5469-11.418 3.7227-16.941 1.4961-3.8047 3.043-7.7422 3.8477-12.176 3.5586-19.59-3.3516-27.945-7.7773-31.191-7.4727-5.4648-14.852-5.7734-22.562-0.94531-1.8047 1.1289-3.1758 2.4688-4.3828 3.6484-2.5703 2.5039-4.2578 4.168-9.4961 3.6523-3.7031-0.36328-7.2539-5.1445-8.6562-7.5117l-4.3438-163.23c0-0.039063 0.082031-3.9492 2.4844-8.8555 0.57031-1.168 2.2812-3.2891 4.5-5.5703 1.4297-1.5234 2.1562-3.5859 1.9844-5.6641-0.085938-1.1016-0.23047-2.9922-0.37109-5.2969l3.9297-0.10938c1.5-0.039063 2.6797-1.293 2.6367-2.793-0.039062-1.5-1.3086-2.7539-2.793-2.6367l-4.0664 0.11719c-0.15625-3.5234-0.25-7.3398-0.17969-10.727l4.375-0.070312c1.5-0.023438 2.6953-1.2578 2.6719-2.7617-0.023438-1.4961-1.168-2.6797-2.7617-2.6719l-3.9297 0.066406c0.35937-2.7344 1.0977-6.8203 2.2227-12.219l3.6797 0.17578c0.046875 0 0.089844 0.003906 0.13672 0.003906 1.4414 0 2.6406-1.1328 2.7109-2.5859 0.070312-1.5-1.082-2.7695-2.5781-2.8477l-2.793-0.13672c0.47266-2.1562 0.98828-4.4648 1.5508-6.9336 0.42969-1.8906 0.050781-3.8945-1.0234-5.4922-1.0742-1.6133-2.793-2.7266-4.8203-3.0664-3.2305-0.43359-4.6953-0.94141-5.2852-1.2031-1.2031-0.53906-2.1211-1.4062-3.1836-2.4023-2.0898-1.9648-4.6953-4.4141-9.8242-4.7695-1.2578-0.089844-1.8281-0.14062-2.0898-0.17969-0.55859-0.13281-1.1445-0.13281-1.7031 0-0.26172 0.039063-0.82813 0.097657-2.0898 0.17969-5.1289 0.35938-7.7344 2.8047-9.8242 4.7695-1.0625 0.99609-1.9844 1.8633-3.1836 2.4023-1.0234 0.45703-2.9844 0.89844-5.4219 1.1992-1.9102 0.32812-3.6289 1.4414-4.707 3.0586-1.0781 1.6133-1.4492 3.6211-1.0195 5.5352 0.59375 2.5703 1.1445 5.0039 1.6484 7.2969l-2.3281 0.21484c-1.4961 0.13672-2.5938 1.4609-2.4531 2.957 0.13281 1.4102 1.3164 2.4648 2.6992 2.4648 0.085938 0 0.17188-0.003907 0.25781-0.011719l2.9727-0.27734c1.0742 5.1641 1.8125 9.2617 2.168 11.98l-3.3672 0.089844c-1.5 0.039062-2.6836 1.2891-2.6406 2.793 0.039063 1.4766 1.25 2.6406 2.7109 2.6406h0.074219l3.5625-0.10156c0.074219 3.8711-0.058593 8.3125-0.26172 12.297l-3.4141 0.054687c-1.5 0.023438-2.6953 1.2578-2.6758 2.7617 0.023437 1.4844 1.2344 2.6758 2.7148 2.6758h0.046876l3.0078-0.046875c-0.097656 1.4492-0.19141 2.7109-0.26562 3.6797-0.16016 1.9883 0.5 3.9844 1.832 5.5 2.4023 2.6836 4.2656 5.1094 4.8672 6.3242 2.2031 4.5 2.5078 7.4531 2.5508 7.9102l-3.5 147.58c-5.7734 0.24219-16.902 1.4258-25.82 6.6875-5.8008 3.4219-16.59 9.7891-20.895 20.816-3.2734 8.3945-1.7891 15.859-0.066406 24.504l0.24609 1.2305c1.0117 5.1172 2.6406 8.832 4.0742 12.105 2.1172 4.8281 3.9453 8.9922 3.5234 17.078-0.29297 5.5586-2.6992 8.9414-7.0703 15.09l-1.6523 2.332c-1.2461 1.7734-2.3633 3.2891-3.3906 4.6914-4.1602 5.6484-7.168 9.7305-11.488 20.773-4.9375 12.621-5.7148 25.652-2.2422 37.691 5.3164 18.449 13.422 27.004 28.496 38.152 17.906 13.25 41.527 16.141 58.191 16.238h0.95312c15.77 0 37.535-2.207 53.656-12.434 18.141-11.512 28.484-25.82 32.547-45.027 3.6719-17.371-2.0703-39.156-8.9609-52.047-3.8281-7.1289-8.0039-11.781-11.688-15.887zm-45.555-61.348c8.6055 0.84766 12.289-2.7695 15.266-5.6797 1.0391-1.0117 2.0195-1.9766 3.1641-2.6914 5.25-3.2891 9.3008-3.1016 14.438 0.65625 2.4688 1.8047 7.8828 7.7578 4.9258 24.047-0.67578 3.7344-2.0312 7.1758-3.4609 10.816-2.3828 6.0547-4.8477 12.324-4.2031 20.188 0.10156 1.2227 0.30078 2.3594 0.55469 3.4492l-7.7773 3.3438c-0.011719 0.003906-0.019531 0.011718-0.03125 0.015625-1.3789-3.1875-2.75-6.2773-3.9492-8.9883-1.7266-3.9062-3.0977-6.9922-3.5312-8.1875l-0.19531-0.54297c-1.4414-3.9648-3.8477-10.605-4.2031-13.176-1.8477-13.496-9.1602-17.402-12.676-19.277l-0.67187-0.36328c-1.3906-0.78125-4.6484-2.4023-6.9023-3.5156l-0.050782-4.875c2.4062 2.3438 5.5469 4.4141 9.3047 4.7812zm30.848 82.348c0.59766 1.0195 1.2031 1.7344 1.6758 2.1914-0.73047 2.4375-2.5547 9.4258-1.9062 16.504 0.46875 5.0781 4.6094 12.93 4.7852 13.262 0.21094 0.40234 0.62109 0.67188 1.0742 0.71094 0.4375 0.035157 0.90234-0.14453 1.1875-0.50391 0.30859-0.38281 1.3398-1.3906 2.4375-1.4805 0.60938-0.046876 1.2148 0.19531 1.8281 0.75391 0.55859 0.50781 0.76953 1.7695 0.19141 2.7695-0.71094 1.2305-2.3008 1.5117-4.4805 0.80469-4.6992-1.5273-6.8008-7.5508-8.4883-12.391-0.55078-1.5703-1.0664-3.0547-1.6289-4.2305-1.9414-4.0859-5.0977-7.9414-6.9062-9.9805 2.3086-0.34766 4.418-1.2227 6.2227-2.6445 1.9141-1.5078 3.2773-3.543 4.0078-5.7656zm-6.0234 3.2031c-3.4375 2.7109-8.4883 2.8164-13.863 0.29688-3.7539-1.7578-10.973-3.7891-14.852-4.8828l-1.6758-0.47266c-5.0039-1.4453-5.1133-6.4883-5.1133-6.6953l-0.019531-29.945c0.46875-0.21484 0.91016-0.50391 1.2852-0.88281 0.83203-0.83203 1.2891-1.9336 1.2891-3.1016v-7.0898c0-1.1602-0.46875-2.293-1.2891-3.1016-0.37891-0.37891-0.81641-0.66406-1.2891-0.88281v-6.3477c1.0469-1.1836 1.6562-2.7188 1.6367-4.3086l-0.15234-14.375c1.9883 0.99219 4.2266 2.1172 5.2734 2.707l0.72656 0.39453c3.2695 1.7422 9.3594 4.9961 10.984 16.844 0.39844 2.9062 2.6953 9.2266 4.3672 13.84l0.19531 0.54297c0.47266 1.3047 1.7891 4.2812 3.6172 8.3984 4.0625 9.168 10.863 24.52 12.105 30.562 0.63672 3.1133-0.62891 6.4492-3.2266 8.5zm-60.77-110.95c0.24609-0.45703 0.40625-0.97266 0.42969-1.5312 0.015625-0.41406-0.039063-0.81641-0.15625-1.1953l3.4883-147.11 12.727 0.10547 4.2773 160.86c0.003907 0.16016 0.019532 0.31641 0.039063 0.46875-0.019531 0.51953 0.10156 1.0469 0.31641 1.5508l0.32422 30.445c0.003906 0.26172-0.097656 0.50781-0.27734 0.69141-0.17969 0.17969-0.43359 0.28125-0.68359 0.28125h-0.003906l-19.555-0.20312c-0.52734-0.003907-0.95703-0.4375-0.95703-0.96094zm23.422 57.949 0.22656 0.22266-0.066406 7.25c-0.039063 0.039063-0.10156 0.066406-0.16016 0.066406h-25.332l-0.22656-0.22656v-7.0898l0.22656-0.22266zm-28.863-229.94c0.5-6.3438 1.25-18.156 0.71094-25.996-0.39844-5.7773-3.4961-19.77-5.3359-27.512 2.1211-0.27344 4.9766-0.78516 7.0625-1.7227 2.3086-1.0391 3.8281-2.4688 5.1758-3.7344 1.7539-1.6484 2.8164-2.6445 5.3672-2.8203 1.1758-0.082031 1.9258-0.14453 2.4375-0.21094 0.51562 0.066406 1.2656 0.13281 2.4375 0.21094 2.5547 0.17578 3.6172 1.1758 5.3711 2.8203 1.3438 1.2656 2.8672 2.6953 5.1758 3.7344 1.6289 0.73047 3.9766 1.3164 6.9883 1.7383-3.25 14.27-4.9727 23.266-5.2617 27.496-0.57031 8.2773 0.30859 20.883 0.71484 25.996-1.9805 2.0352-4.5898 4.9727-5.7734 7.4023-1.8633 3.8125-2.6445 7.2031-2.9766 9.4258l-13.113-0.10938c-0.35938-1.9102-1.1523-4.8828-2.9961-8.6523-1.1641-2.3789-3.8945-5.6484-5.9844-8.0664zm4.0234 336.93c-0.28906 0-0.51953-0.23047-0.51953-0.51953v-4.4922c0-0.28906 0.23047-0.51953 0.51953-0.51953h28.898c0.28906 0 0.51953 0.23047 0.51953 0.51953v4.4922c0 0.28906-0.23047 0.51953-0.51953 0.51953zm24.289 3.9844-4.9883 28.84-4.8555 0.082031-4.8203-0.074219-4.9883-28.84h19.652zm-7.8438 35.984c-2.2031-0.011719-4.5391-0.085938-6.9609-0.21484l0.046875-2.9414 4.8906 0.082031 0.03125-1.9883 0.03125 1.9883 4.8906-0.082031 0.046875 3.1445c-1.0156 0.011719-2.0078 0.015625-2.9766 0.011719zm80.02-51.715c-3.6289 17.168-12.953 30.012-29.336 40.41-12.746 8.0859-29.809 10.641-43.727 11.184l-0.050781-3.4805c-0.011719-0.87109-0.35938-1.7148-0.94141-2.3594l5.1953-30.023h1.3008c2.4844 0 4.5-2.0195 4.5-4.5v-4.4922c0-2.4844-2.0195-4.5039-4.5-4.5039h-28.898c-2.4844 0-4.5 2.0195-4.5 4.5039v4.4922c0 2.4844 2.0195 4.5 4.5 4.5h1.3359l5.1836 29.988c-0.59766 0.64844-0.95703 1.5078-0.96875 2.3867l-0.046874 3.1094c-13.934-1.1953-30.191-4.8555-42.98-14.316-14.293-10.578-21.043-17.684-25.84-34.34-3.0273-10.496-2.3242-21.922 2.0312-33.043 3.9688-10.152 6.5938-13.719 10.574-19.113 1.0625-1.4414 2.207-2.9961 3.4922-4.8203l1.6289-2.3008c4.6406-6.5312 7.9961-11.25 8.3984-18.906 0.51562-9.8008-1.8438-15.176-4.1211-20.367-1.4102-3.2188-2.7461-6.2578-3.6016-10.602l-0.24609-1.2383c-1.6211-8.1523-2.7969-14.035-0.29297-20.461 3.1289-8.0195 10.844-13.09 17.824-17.211 8.1836-4.8281 19.098-5.6055 23.617-5.7188l-0.03125 41.438c-0.003906 3.4922 2.8359 6.3633 6.332 6.3984l19.555 0.20312h0.054688c0.50781 0 1.0078-0.082031 1.5-0.20312v3.9844h-23.887c-1.1758 0-2.2773 0.45703-3.1016 1.2852-0.82031 0.81641-1.2891 1.9492-1.2891 3.1016v7.0898c0 1.1758 0.45703 2.2734 1.2891 3.1016 0.83203 0.82812 1.9336 1.2852 3.1016 1.2852h23.887l0.019531 29.543c0 2.6484 1.5625 8.1172 7.4727 9.8242l1.7031 0.48438c3.7891 1.0664 10.844 3.0547 14.348 4.6953 2.5781 1.2031 5.1094 1.8633 7.5117 2.0469 0.058594 0.10938 0.11719 0.22266 0.20703 0.3125 0.050781 0.050781 5.1953 5.2891 7.7852 10.742 0.5 1.0469 0.99219 2.4648 1.5156 3.9648 1.7891 5.1172 4.2305 12.133 10.211 14.078 1.125 0.36328 2.0977 0.51562 2.9375 0.51562 2.9727 0 4.3281-1.8398 4.7305-2.5352 1.1758-2.0195 0.86328-4.7188-0.71094-6.1445-1.168-1.0664-2.5195-1.5625-3.8945-1.4492-1.1445 0.097656-2.1211 0.59375-2.8555 1.125-1.2031-2.4883-3.3867-7.3711-3.6836-10.652-0.73047-7.9922 2.0234-16.188 2.0547-16.273 0.19531-0.57813-0.035156-1.2344-0.54297-1.5781-0.015624-0.011718-1.6992-1.1797-2.7539-4.5156-0.11719-0.35938-0.36328-0.64063-0.67578-0.79688-0.035156-0.41406-0.074219-0.83203-0.16016-1.2383-0.76562-3.7266-3.3516-10.387-6.2383-17.25 0.015624-0.003906 0.03125-0.011719 0.046874-0.015625l7.4648-3.2109c1.918 3.8594 4.7305 7.0117 7.6484 10.27 3.4102 3.7969 7.2734 8.1055 10.676 14.465 6.4688 12.141 11.391 32.234 8.2422 47.133z"/>
  <path d="m364.17 494.07c-4.082-1.4766-8.293 0.86719-11.273 6.2773-1.9609 3.5586-3.7539 9.3398-4.9375 13.168l-0.53516 1.7188c-0.82031 2.5898-4.2188 6.5664-5.457 7.8789-0.34375 0.36719-0.45703 0.89844-0.29688 1.3711 0.03125 0.082031 2.7852 8.2578 2.0508 16.27-0.30078 3.2734-2.4805 8.1602-3.6836 10.652-0.73438-0.52734-1.7148-1.0234-2.8555-1.125-1.3867-0.11719-2.7188 0.38672-3.8945 1.4492-1.5703 1.4297-1.8828 4.1328-0.71094 6.1445 0.40234 0.69531 1.7578 2.5352 4.7305 2.5352 0.83984 0 1.8203-0.14453 2.9375-0.51562 5.9805-1.9453 8.4219-8.9531 10.211-14.066 0.52344-1.5 1.0234-2.9219 1.5234-3.9688 2.5859-5.4414 7.7266-10.691 7.7852-10.742 0.37109-0.37109 0.49219-0.93359 0.30859-1.4258-0.035156-0.089843-3.457-9.3906-3.5078-13.473-0.058594-4.9766 2.3711-11.062 3.6211-13.859 1.3242 0.89062 3.3672 1.7695 5.4297 0.75391 1.707-0.83594 2.6367-2.3164 2.543-4.0625-0.125-2.125-1.7617-4.168-3.9883-4.9805zm0.24219 6.6055c-1.5859 0.78906-3.707-1.3789-3.7266-1.4023-0.30078-0.32422-0.74609-0.48438-1.1797-0.41797-0.4375 0.058594-0.82031 0.33203-1.0234 0.72656-0.19141 0.37891-4.7344 9.332-4.6445 16.672 0.046874 3.8359 2.5234 11.145 3.3906 13.582-1.5 1.6133-5.4414 6.082-7.707 10.855-0.55859 1.1797-1.0781 2.6719-1.6289 4.2422-1.6875 4.8359-3.793 10.852-8.4883 12.383-2.1719 0.70703-3.7695 0.42188-4.4805-0.80078-0.58594-1.0039-0.36719-2.2656 0.19141-2.7773 0.55859-0.50781 1.1094-0.76172 1.6719-0.76172 0.050782 0 0.10156 0 0.15234 0.003906 1.0977 0.089844 2.1328 1.0938 2.4375 1.4766 0.28125 0.35937 0.71875 0.55469 1.1875 0.50781 0.45703-0.039062 0.86719-0.30859 1.0781-0.71484 0.17578-0.33203 4.3164-8.1836 4.7852-13.262 0.66016-7.1953-1.2383-14.297-1.9414-16.621 1.3086-1.4648 4.5703-5.3203 5.5273-8.3242l0.54297-1.7383c1.1523-3.7227 2.8906-9.3438 4.7188-12.66 2.2773-4.1367 5.2617-6.0273 7.9648-5.0312 1.1953 0.43359 2.1406 1.543 2.1953 2.5742 0.035156 0.65234-0.29688 1.1289-1.0234 1.4883z"/>
  <path d="m423.36 529.35-50.109 0.03125c-1.5 0-2.7148 1.2188-2.7148 2.7188s1.2188 2.7148 2.7148 2.7148l50.109-0.03125c1.5 0 2.7148-1.2188 2.7148-2.7188s-1.2109-2.7148-2.7148-2.7148z"/>
  <path d="m424.48 506.92c-3.0391 0-5.5117 2.4727-5.5117 5.5117 0 3.0391 2.4727 5.5117 5.5117 5.5117 3.0391 0 5.5117-2.4727 5.5117-5.5117 0-3.0391-2.4766-5.5117-5.5117-5.5117zm0 7.7656c-1.2383 0-2.2539-1.0078-2.2539-2.2539s1.0078-2.2539 2.2539-2.2539c1.2383 0 2.2539 1.0078 2.2539 2.2539-0.003906 1.2461-1.0156 2.2539-2.2539 2.2539z"/>
  <path d="m438.36 513.96c-3.0391 0-5.5117 2.4727-5.5117 5.5117 0 3.0391 2.4727 5.5117 5.5117 5.5117 3.0391 0 5.5117-2.4727 5.5117-5.5117-0.003907-3.0391-2.4766-5.5117-5.5117-5.5117zm0 7.7617c-1.2383 0-2.2539-1.0078-2.2539-2.2539s1.0078-2.2539 2.2539-2.2539c1.2461 0 2.2539 1.0078 2.2539 2.2539-0.003906 1.2461-1.0156 2.2539-2.2539 2.2539z"/>
 </g>
</svg>