<?xml version="1.0" encoding="UTF-8"?>
<!-- Uploaded to: SVG Find, www.svgfind.com, Generator: SVG Find Mixer Tools -->
<svg fill="#000000" width="800px" height="800px" version="1.1" viewBox="144 144 512 512" xmlns="http://www.w3.org/2000/svg">
 <g fill-rule="evenodd">
  <path d="m414.14 625.46c1.3281 0.085937 2.8359 0.24609 4.4922 0.42188 3.5156 0.37891 7.6953 0.82422 12.289 0.82422 11.789 0 26.336-2.9531 39.473-17.637 7.1055-7.9336 9.3164-17.184 7.4102-30.926-1.543-11.105-17.184-35.938-17.34-36.188-6.2539-9.8945-6.7578-15.785-5.4922-23.184 0.94531-5.5312 2.8203-10.914 4.6406-16.105 1.3867-3.9688 2.6953-7.7188 3.5859-11.473 2.6367-11.07 3.3789-15.078 1.5781-25.734-1.7969-10.605-8.9961-17.625-18.793-18.309-3.5117-0.24609-6.2969 0.64062-9.2383 1.5781-3.1328 0.99609-6.3672 2.0234-11.406 2.0234h-0.20313c-6.6367-0.035156-9.3164-5.9609-9.8477-7.3398 0.015625-0.14453 0.019532-0.28906 0.019532-0.4375l-3.9961-184.38c0.16797-0.90234 0.97266-4.5 3.5508-6.7773 4.6211-4.0703 9.8594-4.1875 9.8828-4.1875h0.011718c1.0234 0 2-0.43359 2.6914-1.1953 0.69141-0.76172 1.0234-1.7852 0.92188-2.8047-0.054688-0.52734-1.3281-13.004-3.1797-20.094-1.4727-5.6367-3.7344-12.531-5.0312-16.375 2.8008-1.6758 6.8164-4.6055 8.6992-8.4648 2.875-5.8789 2.1758-13.387-1.7383-18.676-2.293-3.1016-7.707-8.0625-18.102-6.3984-7.9805 1.2695-12.832 11.43-13.359 12.586-0.015625 0.03125-0.019531 0.058593-0.03125 0.089843l-3.3398-0.78125c-1.4648-0.34766-2.9258 0.5625-3.2734 2.0312-0.34766 1.4648 0.5625 2.9336 2.0312 3.2734l3.2852 0.76953-1.2227 5.2539-3.3594-0.78516c-1.4648-0.34766-2.9258 0.5625-3.2734 2.0312-0.34375 1.4648 0.5625 2.9336 2.0312 3.2734l3.3711 0.78906-1.4648 6.2812-3.0039-0.70703c-1.4727-0.34766-2.9336 0.5625-3.2734 2.0312-0.34375 1.4648 0.5625 2.9258 2.0312 3.2734l3.0117 0.70703-1.2461 5.332-2.8711-0.67578c-1.4648-0.34766-2.9258 0.5625-3.2734 2.0312-0.34375 1.4648 0.5625 2.9258 2.0312 3.2734l2.875 0.67578-1.4609 6.2773-2.9141-0.69531c-1.4727-0.35156-2.9336 0.5625-3.2734 2.0312-0.34375 1.4648 0.5625 2.9258 2.0312 3.2734l2.9023 0.67969-1.2227 5.2539-2.9766-0.69922c-1.4648-0.34766-2.9258 0.5625-3.2734 2.0312-0.34375 1.4648 0.5625 2.9336 2.0312 3.2734l2.9883 0.69922-1.2148 5.2031c-0.41797 1.7969 0.5 3.5938 2.2383 4.2188 0.066406 0.03125 1.668 0.71094 2.9727 2.9688 0.78516 1.3555 0.97656 3.1602 0.98438 3.6641l-2.5039 163.08c-0.35938 1.2461-1.5 3.7031-5.2305 3.5156-3.668-0.16797-7.9688-4.3086-10.766-8.125-1.125-1.5312-1.875-2.9062-2.5938-4.2305-1.5703-2.875-3.1953-5.8555-7.8086-8.6562-3.9648-2.4102-8.0742-4.2578-14.664-0.49219-6.1016 3.4883-6.7109 13.941-6.5586 22.656 0.089844 5.2109 1.6992 15.695 5.9297 28.082l0.36328 1.0312c2.0703 5.8789 6.9258 19.652-0.33594 39.504-0.75 2.0508-2.9688 6.3828-5.3164 10.973-3.0039 5.875-6.4023 12.523-8.0469 16.957-0.33594 0.90234-0.71484 1.875-1.1289 2.918-2.6953 6.8633-6.7773 17.242-6.2422 30.324 1.3906 34.289 24.777 45.973 32.465 49.812 19.645 9.8086 47.273 14.746 60.07 15.559zm-32.34-89.625c-0.066406 0-0.125-0.023438-0.17188-0.066406-0.046875-0.046876-0.070312-0.10547-0.070312-0.17188l0.066406-3.9062 0.17188-0.070312 35.109-0.003906c0.058594 0 0.125 0.023437 0.17188 0.070312 0.039062 0.039063 0.066406 0.10547 0.066406 0.16797v3.7383c0 0.066406-0.023437 0.125-0.066406 0.16797-0.046875 0.046875-0.10547 0.070313-0.17188 0.070313h-35.105zm38.105 2.75c0.79688-0.80078 1.2344-1.8633 1.2344-2.9922v-0.097656l5.6172-7.1445c0.86328-1.0977 2.1602-1.7734 3.5625-1.8438l11.465-0.57422c0.43359 2.2891 1.5078 7.5312 2.9609 11.656 0.86328 2.4375 1.8438 4.168 2.7969 5.8359 0.73047 1.2812 1.4219 2.4922 2.0859 4.0508 0.66016 1.5312 2.2461 4.0195 3.9297 6.6484 1.457 2.2773 2.957 4.6289 3.6211 6.0312 0.21484 0.45312 0.61328 1.1641 1.1172 2.0352 1.3359 2.3359 3.5703 6.2461 4.1055 9.043 0.36719 1.9102 0.10937 2.6367-2.1328 3.1641-1.5938 0.37891-6.5156-0.34375-10.062-2.1016-2.3867-1.1836-7.4961-5.0742-9.7148-7.2266-2.9062-2.8164-7.3242-8.1328-11.82-14.219l-8.957-12.125c0.078124-0.042969 0.14453-0.082031 0.19141-0.14062zm24.754-28.742c-1.1641 3.707-2.4453 10.734-2.9062 13.367l-11.566 0.57812c-2.1875 0.10938-4.2188 1.1602-5.5664 2.8828l-3.543 4.5039c-0.14062-0.87109-0.53516-1.6758-1.1758-2.3125-0.80078-0.80078-1.8633-1.2383-2.9922-1.2383h-35.109c-1.1172 0-2.2109 0.45312-2.9922 1.2383-0.78125 0.77734-1.2109 1.8086-1.2344 2.9062-0.90234-0.45313-2.0547-1.5-2.0977-3.9609-0.023437-1.4258 0.070313-3.3047 0.16797-5.2969 0.1875-3.6992 0.39453-7.8906-0.10547-10.68-1.5234-8.4141-4.7656-16.176-6.707-20.816-0.37109-0.89062-0.69531-1.668-0.94531-2.3008-6.3516-16.098-11.332-37.605-11.879-41.289-0.94531-6.3984-1.5312-10.695-1.5117-12.363 0.023437-1.7852 0.59766-4.8203 2.6016-4.9062 1.4141-0.10547 2.832 1.2812 4.4375 2.8359 0.66016 0.64062 1.3398 1.293 2.0664 1.8984l0.55469 0.46875c2.6992 2.293 6.793 5.7539 13.824 7.3047 2.3242 0.51562 5.7734 0.78125 7.707 0.90234v12.68c0 2.9844 2.1328 5.5078 5.0664 6.0039l6.4648 1.1016c0.98438 0.16797 1.9688 0.25 2.957 0.25 1.0977 0 2.2031-0.10547 3.2891-0.3125l5.8633-1.1172c1.707-0.32812 3.1172-1.3711 3.9961-2.7656 3.2812 2 8.75 4.2969 14.414 3.582 3.8242-0.48047 9.457-1.8633 13.34-3.0234 3.9609-1.1836 7.3945-0.16797 9.4297 2.7969 2.1172 3.0898 3.0234 7.9062 2.6133 13.926-0.19141 2.8711-1.5234 11.734-4.207 19.367-0.69531 1.9805-1.3906 4.3086-2.1953 7.0039-0.59375 2.0156-1.2617 4.2578-2.0586 6.7852zm-40.477-244.52 3.8555 177.8c0.003906 0.24219 0.035156 0.47266 0.085938 0.69531-0.058594 0.5-0.015625 1.0195 0.14453 1.5234 0.011719 0.03125 0.035156 0.10938 0.074219 0.22656l0.48828 10.609c0.015625 0.31641-0.21094 0.59766-0.52344 0.66016l-5.8633 1.1172c-1.4258 0.27344-2.875 0.28906-4.3125 0.039062l-6.4648-1.1016c-0.3125-0.054688-0.53516-0.32422-0.53516-0.63672l0.003906-29.012c0.058594-0.24219 0.10156-0.5 0.10938-0.75391 0-0.015625 0.003906-0.03125 0.003906-0.046875 0.066406-0.38281 0.066406-0.76562 0.011718-1.1289l2.4531-160zm5.9648-84.543c4.9727-0.79687 8.8203 0.43359 11.125 3.5469 2.2734 3.0742 2.7148 7.7695 1.0547 11.168-1.4766 3.0234-6.4883 5.8594-8.1211 6.6133-1.707 0.78125-2.5391 2.7344-1.9141 4.5039 0.035157 0.10547 3.8203 10.914 5.8633 18.746 1.1445 4.3828 2.0898 11.367 2.5898 15.531-2.8906 0.66406-6.9258 2.1445-10.691 5.4648-4.9531 4.3633-5.8984 10.793-5.9922 11.512-0.023438 0.17578-0.035156 0.35938-0.03125 0.53906l0.03125 1.4648h-10.602c-0.25781-1.3555-0.74219-3.0312-1.668-4.6289-1.1992-2.0703-2.6055-3.4922-3.8242-4.4453l14.426-61.887c1.2969-2.6367 4.6172-7.6289 7.7539-8.1289zm-81.293 379c-0.46875-11.559 3.125-20.703 5.75-27.371 0.42969-1.0898 0.82813-2.1055 1.1758-3.0469 1.4961-4.0273 4.793-10.48 7.7031-16.172 2.5586-4.9961 4.7656-9.3203 5.668-11.777 8.1602-22.305 2.5-38.363 0.36719-44.414l-0.33594-0.96875c-3.707-10.848-5.4531-20.809-5.543-25.859-0.24219-13.73 2.3711-15.926 2.9023-16.227 1.4414-0.82812 2.457-1.1953 3.3945-1.1953 1.1836 0 2.2461 0.58984 3.8906 1.5859 2.9492 1.7891 3.7969 3.3516 5.2031 5.9297 0.79688 1.4609 1.7031 3.1172 3.1133 5.043 2.3594 3.2188 8.6641 10.742 16.293 11.094 3.0117 0.125 5.3945-0.59766 7.2539-1.7383l-0.003906 5.6289c-1.8672-0.12109-4.9844-0.37109-7.0039-0.82031-6.2422-1.375-9.8086-4.3984-12.414-6.6055l-0.57031-0.48047c-0.66406-0.55469-1.2852-1.1602-1.8906-1.7422-1.9648-1.9062-3.9688-3.8477-6.8516-3.7539-3.4102 0.14453-5.6562 3.3359-5.7266 8.125-0.019531 1.6914 0.36719 4.9414 1.5469 12.887 0.69922 4.7109 5.9414 26.469 12.078 42.004 0.25781 0.64844 0.58984 1.4453 0.97266 2.3633 1.8906 4.5156 5.0469 12.07 6.5039 20.137 0.4375 2.418 0.23828 6.4141 0.058594 9.9336-0.10156 2.0508-0.19531 3.9844-0.17188 5.5156 0.085937 4.8711 3.2812 6.8555 5.3555 7.3594v0.36719c0 1.1328 0.4375 2.1953 1.2383 2.9922 0.78516 0.78516 1.875 1.2383 2.9922 1.2383h34.676l9.582 12.973c4.6641 6.3125 9.0977 11.645 12.172 14.621 2.1914 2.125 7.5859 6.3438 10.539 7.8086 3.0781 1.5273 7.4023 2.5391 10.379 2.5391 0.71875 0 1.3594-0.058594 1.8828-0.17969 3.8125-0.90234 5.3164-3.1797 4.5898-6.9609-0.64062-3.332-2.9531-7.3711-4.4805-10.051-0.44922-0.78125-0.8125-1.4102-1.0039-1.8203-0.75391-1.582-2.2422-3.9141-3.8203-6.3828-1.5352-2.4102-3.1289-4.8984-3.6836-6.1836-0.74219-1.7266-1.5117-3.0742-2.2539-4.3789-0.92188-1.6172-1.7891-3.1445-2.5547-5.3047-1.5938-4.5078-2.7461-10.676-2.9883-12.004 0.26172-1.543 1.7031-9.7578 2.9258-13.672 0.80078-2.5508 1.4766-4.8008 2.0742-6.8164 0.78906-2.6562 1.4766-4.9492 2.1445-6.8516 2.5508-7.2461 4.1211-16.355 4.3828-20.227 0.46484-6.8633-0.60938-12.242-3.1836-15.996-2.8477-4.1445-7.7227-5.6719-13.062-4.0742-4.4375 1.3242-9.707 2.5234-12.809 2.9102-5.3086 0.67187-10.699-2.0039-13.074-3.5469 0-0.10156 0.019531-0.19141 0.015625-0.29297l-0.085938-1.8633c2.5703 2.1797 6.1172 3.918 10.906 3.9453 6.2773-0.015625 10.484-1.293 13.844-2.3672 2.5586-0.81641 4.4141-1.4023 6.5312-1.25 6.375 0.44141 10.914 5.0312 12.141 12.277 1.5859 9.3516 1.0469 12.219-1.4805 22.844-0.80469 3.3906-2.0625 6.9688-3.3789 10.758-1.9141 5.4805-3.8945 11.145-4.9414 17.281-1.4922 8.7461-0.91797 16.523 6.5156 28.289 6.207 9.8086 15.355 26.633 16.289 33.309 1.6055 11.551-0.023438 18.816-5.6289 25.078-15.781 17.637-33.703 15.707-45.57 14.434-1.7734-0.19141-3.3906-0.36328-4.8125-0.45312-10.316-0.64844-37.902-5.1289-57.289-14.812-11.676-5.8398-27.352-16.719-28.438-43.609z"/>
  <path d="m412.58 507.96h-27.379c-2.1875 0-4.2422 0.85156-5.7773 2.3945-1.5469 1.543-2.3984 3.5977-2.3984 5.7852s0.85156 4.2422 2.3945 5.7852c1.5234 1.5234 3.6289 2.3945 5.7852 2.3945h27.379c2.1523 0 4.2578-0.87109 5.7773-2.3945 1.5469-1.5469 2.3984-3.5977 2.3984-5.7852s-0.85156-4.2422-2.3984-5.7773c-1.543-1.5586-3.5938-2.4023-5.7812-2.4023zm1.9297 10.105c-0.50781 0.50781-1.2109 0.79688-1.9297 0.79688h-27.379c-0.71875 0-1.4258-0.29297-1.9297-0.79688-0.51562-0.51562-0.79688-1.1992-0.79688-1.9297s0.28125-1.4141 0.80078-1.9336c0.50391-0.50391 1.2109-0.79688 1.9297-0.79688h27.379c0.73047 0 1.4141 0.28125 1.9297 0.80078 0.51562 0.51562 0.79688 1.1992 0.79688 1.9297 0 0.72656-0.28516 1.4102-0.80078 1.9297z"/>
  <path d="m412.58 464.93h-27.379c-2.1562 0-4.2617 0.875-5.7852 2.3984-1.5469 1.543-2.3945 3.5977-2.3945 5.7852s0.85156 4.2383 2.3945 5.7773c1.5234 1.5234 3.6289 2.3984 5.7852 2.3984h27.379c2.1523 0 4.2578-0.87109 5.7773-2.3945 1.5469-1.5469 2.3984-3.5977 2.3984-5.7852s-0.85156-4.2383-2.3984-5.7773c-1.5391-1.5508-3.5898-2.4023-5.7773-2.4023zm2.7305 8.1797c0 0.72656-0.28125 1.4141-0.80078 1.9297-0.50781 0.50781-1.2109 0.80078-1.9297 0.80078h-27.379c-0.71875 0-1.4219-0.29297-1.9297-0.80078-0.51562-0.51562-0.79688-1.1992-0.79688-1.9297s0.28125-1.4141 0.80078-1.9297c0.50781-0.50781 1.2109-0.79688 1.9297-0.79688h27.379c0.71875 0 1.4219 0.29297 1.9297 0.80078 0.51172 0.50781 0.79688 1.1914 0.79688 1.9258z"/>
  <path d="m379.61 593.27c3.9453 2.0664 17.105 1.918 19.836 1.8633 0.54297 0.011719 1.5 0.023437 2.7148 0.023437 4.8867 0 13.961-0.23828 17.121-1.8945 3.4961-1.8398 4.6094-5.7383 4.5-8.5234-0.15234-3.7852-0.71875-7.3516-1.4375-11.863-0.29688-1.8906-0.625-3.9453-0.95703-6.2422-1.3047-9.082-9.3828-13.941-13.469-15.234-3.875-1.2305-7.793-1.1641-8.4727-1.1523-0.68359-0.011719-4.6055-0.070312-8.4805 1.1523-4.0859 1.3008-12.156 6.1562-13.469 15.234-0.33203 2.3008-0.66016 4.3516-0.95703 6.2422-0.71484 4.5156-1.2852 8.082-1.4375 11.863-0.10156 2.793 1.0039 6.6953 4.5078 8.5312zm1.418-19.676c0.30078-1.9102 0.63672-3.9844 0.96875-6.3086 1.0234-7.1094 7.8125-10.75 10.348-11.559 3.3789-1.0742 6.9766-0.94141 7.0078-0.94141h0.089844 0.003906 0.089844c0.03125 0 3.6289-0.13281 7.0078 0.94141 2.5352 0.80469 9.3242 4.4492 10.348 11.559 0.33594 2.3242 0.66406 4.4023 0.96875 6.3086 0.69531 4.3672 1.2383 7.8242 1.3867 11.34 0.046874 1.0977-0.33203 3.4062-2.0742 4.3164-2.1562 1.1328-11.621 1.4805-17.668 1.3438h-0.058594-0.058594c-6.0352 0.13281-15.512-0.21484-17.668-1.3438-1.7422-0.91016-2.1172-3.2227-2.0703-4.3164 0.14062-3.5234 0.68359-6.9727 1.3789-11.34z"/>
  <path d="m449.31 490.44 0.23828-18.043c0.003907-0.58594-0.26562-1.1328-0.73438-1.4805l-8.8555-6.5664c-0.34375-0.25-0.75-0.34766-1.1328-0.35937-0.33594-0.003907-0.79688 0.10547-1.1367 0.36328l-8.7617 6.5664c-0.46484 0.34766-0.73438 0.89844-0.72656 1.4766l0.23828 18.043c0.003906 0.59375 0.30859 1.1445 0.79688 1.4805l8.6875 5.8984c0.097657 0.066407 0.19141 0.125 0.29688 0.17188 0.24219 0.10937 0.5 0.16797 0.75391 0.16797 0.24609-0.011718 0.53516-0.058594 0.78125-0.17578 0.10156-0.050781 0.20313-0.10547 0.29297-0.17188l8.4883-5.8984c0.47656-0.33984 0.76563-0.88281 0.77344-1.4727zm-3.6172-0.98047-6.7305 4.6797-6.9062-4.6914-0.21094-16.172 6.9883-5.2344 7.0742 5.2383z"/>
  <path d="m439.04 535.3c0-3.9844-3.2383-7.2188-7.2188-7.2188s-7.2188 3.2383-7.2188 7.2188 3.2383 7.2188 7.2188 7.2188c3.9844 0 7.2188-3.2383 7.2188-7.2188zm-11.352 0c0-2.2812 1.8555-4.1367 4.1328-4.1367 0.19531 0 0.38672 0.03125 0.57422 0.058594l-0.58984 1.125c-0.34766 0.66406-0.089844 1.4922 0.57422 1.8398 0.20313 0.10547 0.41797 0.15625 0.62891 0.15625 0.48828 0 0.96094-0.26562 1.2109-0.73047l0.59766-1.1445c0.69922 0.74219 1.1367 1.7344 1.1367 2.832 0 2.2773-1.8555 4.1328-4.1367 4.1328-2.2734 0.003906-4.1289-1.8516-4.1289-4.1328z"/>
  <path d="m435.96 553.41c0 3.9805 3.2383 7.2188 7.2188 7.2188 3.9805 0 7.2188-3.2383 7.2188-7.2188 0-3.9844-3.2383-7.2188-7.2188-7.2188-3.9805 0-7.2188 3.2344-7.2188 7.2188zm7.2188-4.1367c0.3125 0 0.62109 0.039062 0.91016 0.10938l-0.51562 0.97656c-0.34766 0.66406-0.089844 1.4922 0.57422 1.8398 0.20312 0.10547 0.41797 0.15625 0.62891 0.15625 0.48828 0 0.96094-0.26562 1.2109-0.73047l0.40625-0.78125c0.5625 0.70703 0.91016 1.5859 0.91016 2.5586 0 2.2773-1.8555 4.1328-4.1328 4.1328-2.2812 0-4.1367-1.8555-4.1367-4.1328 0.007813-2.2734 1.8672-4.1289 4.1445-4.1289z"/>
  <path d="m385.09 587.31h0.003906l28.535-0.12109c1.0039-0.003906 1.8125-0.82031 1.8086-1.8242-0.003906-1.0039-0.81641-1.8086-1.8125-1.8086h-0.003906l-28.535 0.12109c-1.0039 0.003907-1.8125 0.82031-1.8086 1.8242 0 1 0.80859 1.8086 1.8125 1.8086z"/>
  <path d="m448.91 566.2c0 2.3438 1.9062 4.2539 4.2539 4.2539 2.3477 0 4.2539-1.9102 4.2539-4.2539s-1.9102-4.2539-4.2539-4.2539-4.2539 1.9062-4.2539 4.2539zm4.2461-1.168c0.64453 0 1.168 0.52344 1.168 1.1641 0 0.64453-0.52344 1.168-1.168 1.168-0.64062 0-1.1641-0.52344-1.1641-1.168 0-0.64062 0.52344-1.1641 1.1641-1.1641z"/>
  <path d="m435.12 474.73c0.011719 0.99609 0.82031 1.793 1.8125 1.793h0.019531l3.875-0.046875c1.0039-0.011719 1.8086-0.83594 1.793-1.8398-0.011719-0.99609-0.82031-1.793-1.8125-1.793h-0.019531l-3.875 0.046875c-1.0039 0.011719-1.8086 0.83594-1.793 1.8398z"/>
  <path d="m440.81 485.68h-0.023438l-3.875 0.050781c-1.0039 0.011719-1.8047 0.83594-1.793 1.8398 0.011718 0.99219 0.82031 1.793 1.8125 1.793h0.023437l3.875-0.046875c1.0039-0.011718 1.8047-0.83594 1.793-1.8398-0.007812-1-0.82031-1.7969-1.8125-1.7969z"/>
  <path d="m440.79 479.26-3.875 0.046875c-1.0039 0.011718-1.8086 0.83594-1.793 1.8398 0.011719 0.99609 0.82031 1.793 1.8125 1.793h0.019531l3.875-0.046875c1.0039-0.011719 1.8086-0.83594 1.793-1.8398-0.007812-1-0.85938-1.8711-1.832-1.793z"/>
  <path d="m365.82 461.75h0.03125c1.0039-0.019531 1.8047-0.84766 1.7852-1.8477l-0.10156-5.8906c-0.019531-1.0039-0.86719-1.7539-1.8477-1.7852-1.0039 0.019531-1.8047 0.84766-1.7852 1.8477l0.10156 5.8906c0.019532 0.99219 0.82813 1.7852 1.8164 1.7852z"/>
  <path d="m366.23 441.69c-0.011719-0.99609-0.82031-1.7969-1.8125-1.7969h-0.019531l-3.707 0.039063c-1.0039 0.011718-1.8086 0.83203-1.7969 1.832 0.011718 0.99609 0.82031 1.7969 1.8125 1.7969h0.019531l3.707-0.039063c1.0039-0.007812 1.8047-0.82812 1.7969-1.832z"/>
  <path d="m365.79 466.09c-1.0039 0.019531-1.8047 0.84766-1.7852 1.8438l0.10156 5.8906c0.019531 0.99219 0.82812 1.7852 1.8125 1.7852h0.03125c1.0039-0.019531 1.8047-0.84766 1.7852-1.8438l-0.10156-5.8906c-0.011719-1.0039-0.79297-1.7812-1.8438-1.7852z"/>
 </g>
</svg>